STARTFONT 2.1
COMMENT HP2PK 1.0.0 (February 9, 1991) output  2000.11.04  22:26:38
COMMENT Font converted from PK to BDF.
FONT et1er08-300
SIZE 7 300 300
FONTBOUNDINGBOX 46 37 0 -6
STARTPROPERTIES 9
POINT_SIZE 70
PIXEL_SIZE 29
RESOLUTION_X 300
RESOLUTION_Y 300
FONT_ASCENT 27
FONT_DESCENT 11
AVERAGE_WIDTH 190
SPACING "P"
_XMBDFED_INFO "Edited with xmbdfed 4.3."
ENDPROPERTIES
CHARS 441
STARTCHAR char0
ENCODING 0
SWIDTH 2468 0
DWIDTH 72 0
BBX 15 19 2 1
BITMAP
001E
003E
7C3E
7C1E
7C1E
7C1E
783E
783E
783E
F83C
F83C
F07C
F078
F078
F070
F0F0
F0E0
7B80
3E00
ENDCHAR
STARTCHAR char1
ENCODING 1
SWIDTH 3565 0
DWIDTH 104 0
BBX 23 17 2 1
BITMAP
001E00
003E00
7C3E00
7C1E00
7C3E00
783E0C
783EFC
783F7C
F83C3C
F83C3E
F07C00
F07C00
F07800
F0F000
F0E000
79C000
3E0000
ENDCHAR
STARTCHAR char2
ENCODING 2
SWIDTH 2742 0
DWIDTH 80 0
BBX 18 24 1 -1
BITMAP
000E00
183E00
FC3E00
7C3E00
7C7C00
7C7C00
7CF800
7CF800
7FF000
7DF000
01F000
03E000
03E000
03C000
07C000
07C000
0F8000
0F8000
0F0380
1F0F80
1FFF80
0FCF80
000FC0
000700
ENDCHAR
STARTCHAR char3
ENCODING 3
SWIDTH 2194 0
DWIDTH 64 0
BBX 14 21 1 1
BITMAP
003C
187C
FC7C
7C7C
7C7C
7878
78F8
78F0
7FF0
39E0
03E0
03E0
07C0
07C0
0780
0F80
0F00
1F00
1E00
3F00
3F00
ENDCHAR
STARTCHAR char4
ENCODING 4
SWIDTH 2605 0
DWIDTH 76 0
BBX 17 21 1 1
BITMAP
001E00
187E00
F83E00
787C00
787C00
787800
78F800
7CF000
7FF000
79E000
03E000
03C000
07C000
07BF00
0FFF80
0F0F80
1F0F80
1E1F00
1F7C00
1FC000
1E0000
ENDCHAR
STARTCHAR char5
ENCODING 5
SWIDTH 2468 0
DWIDTH 72 0
BBX 16 19 1 1
BITMAP
0007
001F
FC1F
7C1F
7C0F
780F
780F
7E1F
FE1F
BE1F
3E1F
3E1E
3C1E
3C1E
3C3C
3C3C
3C78
3FF0
1F80
ENDCHAR
STARTCHAR char6
ENCODING 6
SWIDTH 3154 0
DWIDTH 92 0
BBX 21 20 2 1
BITMAP
0001F0
001FF8
00FCF8
787CF8
F87CF8
F87CF0
F87FE0
F87C00
F87800
F07800
F07800
F07800
F07800
F0F800
F0F800
F0F000
F0F000
F0E000
7B8000
3E0000
ENDCHAR
STARTCHAR char8
ENCODING 8
SWIDTH 2605 0
DWIDTH 76 0
BBX 16 21 2 1
BITMAP
0180
0F80
0F80
07C0
07C0
07E0
1FF0
1FF8
3EF8
3C78
787C
787C
787C
F07C
F07C
F03C
F03C
F03C
F03E
F83E
F81F
ENDCHAR
STARTCHAR char9
ENCODING 9
SWIDTH 3565 0
DWIDTH 104 0
BBX 23 21 2 1
BITMAP
018000
0F8000
0F8000
07C000
07C000
0FE000
1FF000
1FF804
3EF83C
3C7BFC
787E7C
787C7E
787C1C
F07C00
F07C00
F03C00
F03C00
F03C00
F03E00
F83E00
781F00
ENDCHAR
STARTCHAR char10
ENCODING 10
SWIDTH 3702 0
DWIDTH 108 0
BBX 24 23 2 -1
BITMAP
010000
0F8000
0F8000
07C000
07C000
0FE000
1FF000
1FF000
3EF800
3C7800
787800
787C00
787C00
F07C00
F07C00
F07C00
F03C00
F03C00
F03E1E
F83F7E
F81FFE
00003E
00001F
ENDCHAR
STARTCHAR char11
ENCODING 11
SWIDTH 2331 0
DWIDTH 68 0
BBX 14 21 2 1
BITMAP
0100
0F00
0F80
0F80
0780
0FC0
1FE0
3FE0
3DF0
7CF0
78F8
F8F8
F8F8
F878
F878
F878
0078
0078
0078
007C
007C
ENDCHAR
STARTCHAR char12
ENCODING 12
SWIDTH 3291 0
DWIDTH 96 0
BBX 21 21 2 1
BITMAP
010000
0F8000
0F8000
07C000
03E000
0FF000
1FF000
1FF800
3EF800
3CF800
7C7C00
787C00
787C00
F07CF0
F07FF8
F07C78
F07C78
F07C78
F87CF0
F83F80
E03C00
ENDCHAR
STARTCHAR char13
ENCODING 13
SWIDTH 3291 0
DWIDTH 96 0
BBX 20 21 2 1
BITMAP
008000
038000
07C000
03C000
03E000
03F000
07F800
0FFC00
1F3E00
1E1E00
3C1E00
380F00
780F00
79CF80
7FC780
F3E780
F1C7C0
F3C3C0
FF03C0
F803F0
6001C0
ENDCHAR
STARTCHAR char14
ENCODING 14
SWIDTH 3840 0
DWIDTH 112 0
BBX 25 21 2 1
BITMAP
01000000
0F800000
0F800000
07800000
07C00000
0FE00000
1FF01F00
1FF1FF80
3EFFEF80
3CF9E780
7879E780
7879FF00
7878F000
F0780000
F0780000
F07C0000
F07C0000
F07C0000
F03C0000
F83E0000
F83E0000
ENDCHAR
STARTCHAR char15
ENCODING 15
SWIDTH 3154 0
DWIDTH 92 0
BBX 20 25 2 -2
BITMAP
020000
1F0000
0F0000
078000
1FC000
3FE000
7DE000
79E000
F9F000
F0F000
F0F000
F0F000
F0F000
F0F000
F0F000
00F000
00F000
00F000
00F800
00FFE0
7FF3E0
7C01E0
7C01F0
780070
600000
ENDCHAR
STARTCHAR char16
ENCODING 16
SWIDTH 3565 0
DWIDTH 104 0
BBX 23 20 2 1
BITMAP
001F00
003F00
001E00
001E00
001E00
003E00
003E00
003E00
003FF8
01FFF8
0FFC7C
1E3C3C
3C3C3C
7C7C3C
787C3C
F87C3C
F87C3C
F8783C
F87C3E
FC7E3E
ENDCHAR
STARTCHAR char17
ENCODING 17
SWIDTH 4388 0
DWIDTH 128 0
BBX 29 20 2 1
BITMAP
001F0000
003F0000
001E0000
001E0000
001E0000
003E0000
003E0000
003E0000
003FF800
01FFF800
0FFC7C00
1E3C3C70
3C3C3FF0
7C7C3CF0
787C3CF0
F87C3CF8
F87C3C00
F8783C00
F87C3E00
FC7E3E00
ENDCHAR
STARTCHAR char18
ENCODING 18
SWIDTH 4662 0
DWIDTH 136 0
BBX 31 22 2 -1
BITMAP
000E0000
003F0000
001F0000
001E0000
001E0000
001E0000
003E0000
003E0000
003FF000
01FFF800
0FFC7C00
1E3C3C00
3C3C3C00
7C7C3C00
787C3C00
F87C3C00
F87C3C3C
F8783C78
F87C3FFC
FC7E3CFC
0000007E
00000010
ENDCHAR
STARTCHAR char19
ENCODING 19
SWIDTH 3565 0
DWIDTH 104 0
BBX 23 20 2 1
BITMAP
003E00
007E00
003E00
003C00
003C00
003C00
007C00
007C00
007DF0
01FFF0
0FF8F8
3E78F8
7C7878
F87878
F8F878
F8FC78
FC4078
000078
00007C
00007E
ENDCHAR
STARTCHAR char20
ENCODING 20
SWIDTH 4388 0
DWIDTH 128 0
BBX 29 20 2 1
BITMAP
001F0000
003F0000
001E0000
001E0000
001E0000
003E0000
003E0000
003E0000
003FF800
01FFF800
0FFC7C00
1E3C3C00
3C3C3C00
7C7C3C00
787C3FF0
F87C3CF8
F87C3CF8
F8783CF8
F87C3FF0
FC7E3F80
ENDCHAR
STARTCHAR char21
ENCODING 21
SWIDTH 3565 0
DWIDTH 104 0
BBX 23 21 2 1
BITMAP
07C000
07E000
07E000
07FF00
07FE00
001E00
001E00
003E00
003E00
003FF8
01FFF8
0FFC7C
1E3C3C
3C3C3C
7C7C3C
787C3C
F87C3C
F87C3C
F8783C
F87C3E
FC7E3E
ENDCHAR
STARTCHAR char22
ENCODING 22
SWIDTH 3565 0
DWIDTH 104 0
BBX 23 20 2 1
BITMAP
001E00
003E00
003E00
003E00
003E00
003C00
003C00
003C00
003DF0
00FFF0
07FCF8
1E7C78
3C7C78
7C7878
7C7878
787C7C
F87C7E
F80000
F80000
FC0000
ENDCHAR
STARTCHAR char19
ENCODING 23
SWIDTH 3600 0
DWIDTH 105 0
BBX 30 26 2 -5
BITMAP
003E0000
007E0000
003E0000
003C0000
003C0000
003C0000
007C0000
007C0000
007DF000
01FFF000
0FF8F800
3E78F800
7C787800
F8787800
F8F87800
F8FC7800
FC407800
00007800
00007C00
00007E00
00003FF8
001FF8F8
001E00F8
001E007C
003C0000
00380000
ENDCHAR
STARTCHAR char24
ENCODING 24
SWIDTH 4251 0
DWIDTH 124 0
BBX 29 14 1 6
BITMAP
00000DE0
007FFFF0
07FF3DF8
0F1F7CF8
1E1E7CF8
3E3E78F8
7C3C78F8
7C7C78F0
FC7CF9F0
F878FFE0
F8F8FF80
FDF00000
7FE00000
78000000
ENDCHAR
STARTCHAR char25
ENCODING 25
SWIDTH 5211 0
DWIDTH 152 0
BBX 35 14 2 6
BITMAP
00001BC000
007FFFE000
07FE7BE000
0F1E79F1E0
1E3CF9F7C0
3C3CF1FFC0
7C7CF1E3E0
7C78F1E1E0
F878F3E000
F8F8FFC000
F8F0FF0000
FDF0000000
FFE0000000
7800000000
ENDCHAR
STARTCHAR char26
ENCODING 26
SWIDTH 4525 0
DWIDTH 132 0
BBX 31 23 1 -1
BITMAP
00000F00
01FFFF80
1FF3EF80
3CF3C780
7DF3C780
79F3CF80
F9E3EF80
F9E3FF80
F9E18F80
FBE01F00
FF801F00
70001F00
00003E00
00003E00
00003E00
00007C00
00007C00
00007C0A
00007C7C
00007FFC
00007FFC
0000007C
0000003E
ENDCHAR
STARTCHAR char27
ENCODING 27
SWIDTH 3702 0
DWIDTH 108 0
BBX 25 21 2 1
BITMAP
00000F00
01FFFF80
1FF3CF80
3CF3CF80
79E3CF80
79E7CF80
F9E7CF80
F9E3FF00
F1E19F00
FBE01F00
FF801E00
70003E00
00003E00
00003E00
00003C00
00007C00
00007C00
00007800
00007800
00007800
00007C00
ENDCHAR
STARTCHAR char28
ENCODING 28
SWIDTH 4251 0
DWIDTH 124 0
BBX 29 21 1 1
BITMAP
00000F00
01FFFF80
0FF3E7C0
3CF3C7C0
7CF3C7C0
79F3C780
F9F3EF80
F9E3FF80
F9E18F80
FBE00F00
FF801F00
70001F00
00001E00
00003E00
00003E70
00003FF8
00007CF8
00007CF8
000078F8
00007DF0
00003FE0
ENDCHAR
STARTCHAR char29
ENCODING 29
SWIDTH 3840 0
DWIDTH 112 0
BBX 26 21 1 1
BITMAP
0000CF00
07FFFF80
1CF3E7C0
3CF1E7C0
78F1E7C0
78F1E7C0
F8F1E7C0
F8F1FF80
F8F0F800
F8F00000
7FF00000
11F00000
03E00000
07C00000
0F800000
1F800000
1F000000
3E000000
7E000000
7C000000
7E000000
ENDCHAR
STARTCHAR char30
ENCODING 30
SWIDTH 3702 0
DWIDTH 108 0
BBX 25 21 1 1
BITMAP
00001E00
07FFFF00
1EFBCF00
3CFBCF80
78F3C780
78F3C780
F8F3C780
F8F3C700
F9F3EF00
FDF3FC00
FFE1C000
21E00000
01E00000
03E00000
03E00000
03E00000
03C00000
03C00000
03C00000
07C00000
03E00000
ENDCHAR
STARTCHAR char31
ENCODING 31
SWIDTH 4251 0
DWIDTH 124 0
BBX 29 25 1 -3
BITMAP
00001E00
07FFFF00
1EF3CF80
3CF3CF80
79E7CF80
79E7CF80
F9E7EF00
F1E3FF00
F9E01F00
FFC01E00
78001E00
00003E00
00003E00
00003C00
00007C00
00007C00
00007800
00007800
0000F800
00007FF0
003FF1F0
003C01F0
003C00F8
00780000
00700000
ENDCHAR
STARTCHAR char32
ENCODING 32
SWIDTH 3428 0
DWIDTH 100 0
BBX 23 14 1 4
BITMAP
00041C
0C7E3E
7C3E3E
3C3E3E
3C3C3E
7C3C3E
7C7C3C
787E38
787FF0
F87F80
F8F800
F9F000
FFC000
780000
ENDCHAR
STARTCHAR char33
ENCODING 33
SWIDTH 4525 0
DWIDTH 132 0
BBX 31 14 1 4
BITMAP
00041C00
0C7E3E00
7E3E3E00
3C3E1E3C
3C3E1E7C
7C3C1FFC
7C7E3C7C
787E3C7E
787FF000
F87F8000
F8F80000
F8F00000
FFC00000
78000000
ENDCHAR
STARTCHAR char34
ENCODING 34
SWIDTH 4114 0
DWIDTH 120 0
BBX 27 21 2 -1
BITMAP
0000F000
18F9F800
FCF8F800
7878F000
7878F000
78FCF000
F8FFF000
F9E1F000
FF81E000
F001E000
0003E000
0003E000
0003C000
0003C000
0007C000
0007C020
0007C3C0
0007EFC0
0003FFC0
000007E0
000003C0
ENDCHAR
STARTCHAR char35
ENCODING 35
SWIDTH 3154 0
DWIDTH 92 0
BBX 21 19 1 1
BITMAP
000078
18F9F8
FCF8F8
7C78F8
7878F8
78FCF0
F8FFF0
F9E1F0
FFC1F0
F001E0
0001E0
0001E0
0003E0
0003E0
0003C0
0003C0
0003C0
0003E0
0003E0
ENDCHAR
STARTCHAR char36
ENCODING 36
SWIDTH 3840 0
DWIDTH 112 0
BBX 25 19 2 1
BITMAP
0000F000
11F9F000
F8F8F000
F8F8F000
F8F9F000
F0F9F000
F1EFE000
F3C1E000
FF81E000
F003E000
0003E000
0003C000
0003DF00
0007EF80
0007CF80
0007CF80
00078F00
0007DF00
0007FC00
ENDCHAR
STARTCHAR char37
ENCODING 37
SWIDTH 4388 0
DWIDTH 128 0
BBX 29 19 2 1
BITMAP
000000F8
0038F8F8
00F87878
00F87878
00F07870
01F07870
03E0F8E0
03E1FF80
07FF8000
0FFE0000
0F800000
1F000000
3F000000
3E000000
7C000000
F8000000
F8000000
F8000000
F8000000
ENDCHAR
STARTCHAR char38
ENCODING 38
SWIDTH 3291 0
DWIDTH 96 0
BBX 21 19 2 1
BITMAP
000078
083DF8
FC7C78
7C7C78
F87C70
F8F8F0
F9F8E0
F9FF80
FFE000
F7C000
07C000
0F8000
0F0000
1F0000
3E0000
3C0000
7C0000
FC0000
7C0000
ENDCHAR
STARTCHAR char35
ENCODING 39
SWIDTH 3154 0
DWIDTH 92 0
BBX 27 25 1 -5
BITMAP
00007800
18F9F800
FCF8F800
7C78F800
7878F800
78FCF000
F8FFF000
F9E1F000
FFC1F000
F001E000
0001E000
0001E000
0003E000
0003E000
0003C000
0003C000
0003C000
0003E000
0003E000
0001FFC0
00FFC7C0
00F007C0
00F003E0
01E00000
01C00000
ENDCHAR
STARTCHAR char40
ENCODING 40
SWIDTH 2605 0
DWIDTH 76 0
BBX 16 20 2 1
BITMAP
003C
007C
003C
007C
0078
00F0
01E0
03C0
0780
0F00
1E00
3E00
7C00
7800
F800
F81E
F83E
F83E
7FFE
3F1F
ENDCHAR
STARTCHAR char41
ENCODING 41
SWIDTH 3154 0
DWIDTH 92 0
BBX 20 20 2 1
BITMAP
00E000
03F000
01E000
03E000
078000
1F0000
7E0000
7C0000
F80000
F80000
F80FC0
7FFFC0
39E7C0
03E3E0
03E1F0
03C000
03C000
03C000
03C000
03E000
ENDCHAR
STARTCHAR char42
ENCODING 42
SWIDTH 2605 0
DWIDTH 76 0
BBX 16 20 2 1
BITMAP
001E
007E
003E
003C
007C
00F8
01F0
03E0
07C0
0F80
1F00
3E00
7C0F
7C1F
F81F
F81F
F81E
FC7C
7FE0
3E00
ENDCHAR
STARTCHAR char43
ENCODING 43
SWIDTH 3428 0
DWIDTH 100 0
BBX 22 20 2 1
BITMAP
005E00
003E00
003E00
007C00
007C00
00F800
01F000
03E000
07C000
0F8000
1F0038
3E07F8
7C1EF8
7C3C78
F8783C
F87800
F87800
FCF800
7FC000
3E0000
ENDCHAR
STARTCHAR char44
ENCODING 44
SWIDTH 3154 0
DWIDTH 92 0
BBX 20 20 2 1
BITMAP
005C00
003E00
003E00
007C00
007800
00F800
01F000
03E000
07C000
0F8000
1F0000
3E0000
7C0FE0
F87BF0
F8F1F0
F8F1F0
F8F9E0
F8F9C0
7FFF00
3E0000
ENDCHAR
STARTCHAR char45
ENCODING 45
SWIDTH 2605 0
DWIDTH 76 0
BBX 17 20 1 1
BITMAP
003F00
03FF00
0F1F00
1E1F80
3C0F80
7C0000
780000
780000
F80000
F80000
F80000
F80000
F80000
F80000
F80000
F81E00
F83E00
F83E00
7FFF00
3E1F00
ENDCHAR
STARTCHAR char46
ENCODING 46
SWIDTH 3017 0
DWIDTH 88 0
BBX 20 20 1 1
BITMAP
000FE0
007DF0
07F8F0
1E78F0
3E78F0
3C79E0
7C7FC0
783800
780000
F80000
F80000
F80000
F80000
F80000
F80000
F80E00
F83E00
F83E00
7FFE00
3E1F00
ENDCHAR
STARTCHAR char47
ENCODING 47
SWIDTH 3428 0
DWIDTH 100 0
BBX 22 21 2 1
BITMAP
3C003C
1E00F8
1E00F0
1FFFF0
007FF0
007800
007800
00F000
01E000
07C000
0F8000
1F0000
3E0000
7C07F8
F83CF8
F878F8
F07878
F0F000
F0F000
FFF000
7C0000
ENDCHAR
STARTCHAR char48
ENCODING 48
SWIDTH 2468 0
DWIDTH 72 0
BBX 15 22 2 1
BITMAP
03C0
07C0
07C0
07C0
07C0
07F0
1C78
387C
783C
703C
F03C
F03C
F03C
F03C
F03C
F03C
F03C
F03C
F03C
F03C
F83E
F03C
ENDCHAR
STARTCHAR char49
ENCODING 49
SWIDTH 3428 0
DWIDTH 100 0
BBX 22 22 2 1
BITMAP
03C000
07C000
07C000
07C000
07C000
07F000
1C7800
387C00
783C00
703C00
703C3C
F03C78
F03FF8
F03CF8
F03C7C
F03C00
F03C00
F03C00
F03C00
F03C00
F83E00
F03C00
ENDCHAR
STARTCHAR char50
ENCODING 50
SWIDTH 3565 0
DWIDTH 104 0
BBX 23 24 2 -1
BITMAP
01C000
0FC000
07C000
07C000
07C000
07E000
1C7800
383C00
783C00
703C00
F03C00
F03C00
F03C00
F03C00
F03C00
F03C00
F03C00
F03C00
F03C0C
F03C7C
F83DFC
783FFC
00007E
000038
ENDCHAR
STARTCHAR char51
ENCODING 51
SWIDTH 2468 0
DWIDTH 72 0
BBX 15 22 2 1
BITMAP
03C0
07C0
07C0
07C0
07C0
07F0
1C78
387C
703C
703C
F03C
F03C
F03C
F03C
F03C
F83C
F03C
003C
003C
003C
003C
003E
ENDCHAR
STARTCHAR char52
ENCODING 52
SWIDTH 3154 0
DWIDTH 92 0
BBX 20 22 2 1
BITMAP
07C000
07C000
07C000
07C000
07C000
07F000
1C7800
387C00
787C00
707C00
707C00
F07C00
F07C00
F07C00
F07C00
F07C00
F07FE0
F079F0
F078F0
F078F0
F879E0
787F80
ENDCHAR
STARTCHAR char53
ENCODING 53
SWIDTH 2468 0
DWIDTH 72 0
BBX 15 22 2 1
BITMAP
1F00
1F00
1F00
0F80
0F80
07F0
1C78
387C
783C
703C
F03C
F03C
F03C
F03C
F03C
F03C
F03C
F03C
F03C
F03C
F83E
F03C
ENDCHAR
STARTCHAR char54
ENCODING 54
SWIDTH 2468 0
DWIDTH 72 0
BBX 15 22 2 1
BITMAP
03C0
07C0
07C0
07C0
07C0
07F0
1C78
387C
783C
703C
703C
F03C
F03C
F03C
F03C
F03E
F03C
F000
F000
F000
F800
F000
ENDCHAR
STARTCHAR char55
ENCODING 55
SWIDTH 3154 0
DWIDTH 92 0
BBX 20 25 2 -3
BITMAP
078000
078000
078000
078000
0FE000
387000
787800
707800
F07800
F07800
F07800
F0F800
F0F800
F0F000
F0F000
F0F000
F8F000
00F000
00F000
00F000
1FFFE0
FC01E0
F801E0
F000F0
E00000
ENDCHAR
STARTCHAR char56
ENCODING 56
SWIDTH 2880 0
DWIDTH 84 0
BBX 21 25 0 1
BITMAP
000070
0001E0
F003E0
79FFF0
7FF1F8
78F000
78F000
80F000
01F800
071C00
0E1E00
1E1E00
1E1E00
3C1E00
3C1E00
3C1E00
3C1E00
3C1E00
3C1E00
3C1E00
3C1E00
3C1E00
3C1E00
3C1F00
1E1C00
ENDCHAR
STARTCHAR char57
ENCODING 57
SWIDTH 3428 0
DWIDTH 100 0
BBX 24 25 0 1
BITMAP
000078
0001F0
FC0FF0
7FFDF8
7C78F8
7CF800
F0F800
00F800
01FC00
038E00
070F00
0E0F00
1E0F1F
1E0F3E
1E0FFE
3C0F3F
3C0F0C
3C0F00
3C1F00
3C1E00
3C1E00
3C1E00
3C1E00
3E1F00
1E0000
ENDCHAR
STARTCHAR char58
ENCODING 58
SWIDTH 3428 0
DWIDTH 100 0
BBX 24 27 0 -1
BITMAP
0000F0
0003F0
FC1FF0
7FFBF0
7CF1F8
7CF000
F0F000
00F000
01F800
031C00
071E00
0E1E00
1E1E00
1E1E00
1C1E00
3C1E00
3C1E00
3C1E00
3C1E00
3C1C00
3C3C00
3C3C0E
3C3C3E
3E3FFE
1E3E7E
00003F
000018
ENDCHAR
STARTCHAR char59
ENCODING 59
SWIDTH 2880 0
DWIDTH 84 0
BBX 21 25 0 1
BITMAP
0000F0
0001F0
F80FF0
7FFFF0
7EF1F8
78F000
70F000
80F000
01F800
071C00
0E1E00
0E1E00
1E1E00
1C1E00
3C1E00
3C1E00
3C1E00
3C1E00
3E1E00
1E3E00
003E00
003C00
003C00
003E00
003E00
ENDCHAR
STARTCHAR char60
ENCODING 60
SWIDTH 3154 0
DWIDTH 92 0
BBX 22 25 0 1
BITMAP
000070
0001F0
FC07F0
7FFFF0
7E78F8
7C7800
78F800
80F800
00FC00
038E00
070F00
0E0F00
1E0F00
1E0F00
3E0F00
3C0F00
3C0F00
3C0F00
3C1FF8
3C1F3C
3C1F3C
3C1E3C
3C1F78
3E1FF0
1C0C00
ENDCHAR
STARTCHAR char61
ENCODING 61
SWIDTH 2880 0
DWIDTH 84 0
BBX 20 24 0 1
BITMAP
0001E0
B803E0
7E1FE0
7FF9F0
7E7C40
7C3E00
A03E00
001F80
0039C0
0071E0
00F1E0
00E1E0
01E1E0
01E1E0
01E1E0
01E1E0
01E1E0
01E1E0
01E1E0
01E1E0
01E1E0
01E1E0
01E1E0
00F1F0
ENDCHAR
STARTCHAR char62
ENCODING 62
SWIDTH 2880 0
DWIDTH 84 0
BBX 21 25 0 1
BITMAP
0000F0
0001F0
FC0FF0
7FFFF0
7EF9F8
7CF000
78F000
80F000
01F800
031E00
071E00
0E1E00
1E1E00
1E1E00
1C1E00
3C1E00
3C1E00
3C1E00
3C1F00
3C0000
3C0000
3C0000
3C0000
3E0000
1E0000
ENDCHAR
STARTCHAR char63
ENCODING 63
SWIDTH 3291 0
DWIDTH 96 0
BBX 23 28 0 -3
BITMAP
000030
E000F0
7000F0
7FFFF0
78F070
F0F000
00F000
03BE00
0F1F00
0F1F00
0E1F00
1E1F00
1E1F00
1E1F00
1E1F00
1E1F00
1E1E00
1E1E00
1E1E00
1F1E00
001E00
001E00
001FFC
0FFFFC
0F003C
0F003E
1E000C
1C0000
ENDCHAR
STARTCHAR char64
ENCODING 64
SWIDTH 3017 0
DWIDTH 88 0
BBX 20 21 1 1
BITMAP
00FC00
007C00
007C00
007C00
00FC00
00FFE0
1FFBF0
78F8F0
70F8F0
F1F8F0
F1F9E0
F1F3C0
FFFF00
39F000
01F000
03F000
03E000
03E000
03E000
03E000
03F000
ENDCHAR
STARTCHAR char65
ENCODING 65
SWIDTH 3017 0
DWIDTH 88 0
BBX 20 21 1 1
BITMAP
00FC00
007C00
007C00
007C00
00FC00
00FFE0
1FFBF0
78F8F0
70F8F0
F1F8F0
F1F9E0
F1F3C0
FFFF00
39F010
01F1E0
03F7E0
03FFE0
03E1F0
03E0C0
03E000
03F000
ENDCHAR
STARTCHAR char66
ENCODING 66
SWIDTH 3017 0
DWIDTH 88 0
BBX 19 23 2 -1
BITMAP
01F800
00F800
00F800
00F800
00F800
00FFC0
1FFFE0
78F1E0
71F1E0
F1F1E0
F1F3C0
F1F780
FFFE00
39E000
03E000
03E000
03E000
03E040
03E3C0
07EFC0
03FFC0
0003E0
0001C0
ENDCHAR
STARTCHAR char66
ENCODING 67
SWIDTH 3565 0
DWIDTH 104 0
BBX 23 23 2 -1
BITMAP
001F00
001F00
000F00
000F00
000F00
001FFC
01FF3E
079F1E
0F0F1E
0F0F1C
0F0F3C
07FFE0
03EF00
001F00
001E00
003E00
00F800
1FC000
F80000
F80000
F80000
F00000
400000
ENDCHAR
STARTCHAR char68
ENCODING 68
SWIDTH 3017 0
DWIDTH 88 0
BBX 20 21 1 1
BITMAP
00FC00
007C00
007C00
007C00
00FC00
00FFE0
1FFBF0
78F8F0
70F8F0
F1F8F0
F1F9E0
F1F3C0
FFFF00
39F000
01F000
03FFC0
03E3C0
03E3C0
03E3C0
03E780
03FE00
ENDCHAR
STARTCHAR char69
ENCODING 69
SWIDTH 3017 0
DWIDTH 88 0
BBX 20 25 1 1
BITMAP
1E0000
1F8000
1F8000
1F0000
3FFC00
00FC00
007C00
007C00
00FC00
00FFE0
1FF9F0
78F8F0
70F8F0
F1F8F0
F1F9E0
F9F3C0
FFFE00
31F000
01F000
03F000
03E000
03E000
03E000
03E000
03F000
ENDCHAR
STARTCHAR char70
ENCODING 70
SWIDTH 2880 0
DWIDTH 84 0
BBX 19 22 1 1
BITMAP
007C00
01CF00
03CF00
03CF00
03CF00
03CE00
03FC00
01F000
01FFC0
07FFE0
1CF3E0
79F3E0
F9F3E0
F9F3C0
F9F780
FFFE00
7FE000
01E000
01E000
01E000
01F000
01E000
ENDCHAR
STARTCHAR char72
ENCODING 72
SWIDTH 3291 0
DWIDTH 96 0
BBX 22 22 1 1
BITMAP
01F000
01F000
00F000
00F000
01F700
0FFFC0
3DF3C0
79F3C0
79F3C0
F1E3C0
F1E780
F9E780
7FFE00
7FE000
03E3F0
03FFF8
03FF3C
03CE3C
03CF7C
07CFF8
07CE00
03E000
ENDCHAR
STARTCHAR char74
ENCODING 74
SWIDTH 4800 0
DWIDTH 140 0
BBX 33 22 1 1
BITMAP
00FC000000
007C000000
007C000000
007C000000
007C006000
007FE3F000
00FFF1E000
1FF9FBE000
3CF8FFE000
78F8F3E000
F8F9F3C000
F8FBE3FF00
7CFF800F00
7FF0000F00
00F0000780
00F0000000
01F0000000
01F0000000
01F0000000
01F0000000
01F0000000
01F8000000
ENDCHAR
STARTCHAR char75
ENCODING 75
SWIDTH 2880 0
DWIDTH 84 0
BBX 19 24 1 1
BITMAP
01F800
00F800
00F800
00F800
03FFC0
1FFFE0
3CF3E0
78F3E0
F8F3E0
F9F3E0
F9F3C0
79F780
7FFE00
1DE000
01E000
01E000
03E000
3FFF00
3C1F00
7C1F00
781F00
701F00
001F00
000E80
ENDCHAR
STARTCHAR char76
ENCODING 76
SWIDTH 3154 0
DWIDTH 92 0
BBX 20 25 2 -2
BITMAP
00F800
007C00
007C00
007800
00FFE0
0FF9F0
1E79F0
3C78F0
3CF9F0
7CF9E0
3CFF80
3FF800
1EF000
00F780
00FFC0
00F3E0
01F3E0
01F3C0
01FF80
07E000
FC0000
F80000
F80000
F00000
E00000
ENDCHAR
STARTCHAR char77
ENCODING 77
SWIDTH 4525 0
DWIDTH 132 0
BBX 31 22 1 1
BITMAP
01F00000
01F80000
00F00000
00F00000
01F30F80
0FFFC780
3DF3C780
79F3C780
79F3FFFC
F9F3C07C
F9E7C07C
F9E7803C
7FFE000E
7FE00000
03E00000
03E00000
03E00000
03C00000
03C00000
03C00000
07E00000
03E00000
ENDCHAR
STARTCHAR char80
ENCODING 80
SWIDTH 3017 0
DWIDTH 88 0
BBX 20 26 2 1
BITMAP
0001E0
0003E0
F803E0
7FFFE0
7FF3F0
78F800
70F000
00F000
00F000
00FFC0
1FF7E0
79F3E0
F1F3E0
F1F3C0
F1E3C0
F1FF00
FFF000
3BE000
03E000
03E000
03E000
03C000
03C000
03C000
03C000
03E000
ENDCHAR
STARTCHAR char81
ENCODING 81
SWIDTH 3154 0
DWIDTH 92 0
BBX 21 26 1 1
BITMAP
0000F0
0001F0
F80FF0
FFFDF0
FCF8F8
FC7800
F87800
007800
007800
007FE0
01FFF0
0FF9F0
3CF9F0
7CF9F0
78F9E0
78FBC0
7CFF00
7FF000
3CF070
00F1F0
00FFF0
00F1F0
01F1F8
01F000
01F800
00E000
ENDCHAR
STARTCHAR char82
ENCODING 82
SWIDTH 3017 0
DWIDTH 88 0
BBX 20 27 2 -1
BITMAP
0001E0
0003E0
F803E0
7FFFE0
7EF3F0
78F000
E0F000
00F000
00F000
03FFC0
1FF3E0
79F3E0
F1F3E0
F1E3C0
F1E780
F9FE00
7FE000
03E000
03E000
03E000
03C000
03C040
03C3C0
03E7C0
03FFC0
0007C0
0003E0
ENDCHAR
STARTCHAR char83
ENCODING 83
SWIDTH 3565 0
DWIDTH 104 0
BBX 23 26 2 -1
BITMAP
00003C
1F007C
0F87FC
0FFF7E
0F9F18
0F0F00
100F00
000F00
000FFC
00FF7E
07CF1E
078F1E
0F0F1E
0F0F3C
0F8FF8
07FF00
000F00
001F00
001E00
003C00
01F000
FF0000
F80000
F80000
F00000
E00000
ENDCHAR
STARTCHAR char84
ENCODING 84
SWIDTH 3017 0
DWIDTH 88 0
BBX 20 26 2 1
BITMAP
0001E0
0003E0
F807E0
7FFFE0
7FF3F0
78F000
F0F000
00F000
00F000
00FFC0
0FF7E0
79F3E0
F1F3E0
F1E3E0
F1E3C0
F1EF00
FFF800
7BE000
03E000
03EF00
03FF80
03C780
03C780
03C780
03FF00
03F800
ENDCHAR
STARTCHAR char85
ENCODING 85
SWIDTH 3428 0
DWIDTH 100 0
BBX 24 30 0 -2
BITMAP
000038
0000F8
F801F8
7CFFF8
7FF078
7CF000
78F000
00F000
00FF80
000780
000780
000780
000780
000FFC
00FFFE
03CF9F
078F1F
0F8F1F
0F8F1E
0F8F3C
0FDFF0
07FF00
001F00
001E00
001E00
001E00
003E00
003E00
003F00
003E00
ENDCHAR
STARTCHAR char86
ENCODING 86
SWIDTH 3428 0
DWIDTH 100 0
BBX 23 27 2 1
BITMAP
00000C
00007C
F800FC
7DFFFC
7F807E
7C3C08
F8FF00
01CF80
03CF80
03CF00
03CF00
03FC00
01F800
01FF80
07FFE0
3CF3E0
79F1E0
F1F1E0
F1F3C0
F1E7C0
FFFF00
7FE000
01E000
01E000
03E000
03E000
01F000
ENDCHAR
STARTCHAR char72
ENCODING 88
SWIDTH 3291 0
DWIDTH 96 0
BBX 22 27 1 1
BITMAP
0001E0
0003E0
F807E0
7FFFE0
7FF3F0
78F000
F0F000
00F000
00F000
01F700
0FFFC0
3DF3C0
79F3C0
79F3C0
F1E3C0
F1E780
F9E780
7FFE00
7FE000
03E3F0
03FFF8
03FF3C
03CE3C
03CF7C
07CFF8
07CE00
03E000
ENDCHAR
STARTCHAR char74
ENCODING 90
SWIDTH 4800 0
DWIDTH 140 0
BBX 33 26 1 1
BITMAP
0000780000
0000F80000
3E01F80000
1FFFF80000
1FFCFC0000
1E7C000000
3C7C000000
007C000000
007C006000
007FE3F000
00FFF1E000
1FF9FBE000
3CF8FFE000
78F8F3E000
F8F9F3C000
F8FBE3FF00
7CFF800F00
7FF0000F00
00F0000780
00F0000000
01F0000000
01F0000000
01F0000000
01F0000000
01F0000000
01F8000000
ENDCHAR
STARTCHAR char75
ENCODING 91
SWIDTH 2948 0
DWIDTH 86 0
BBX 21 29 1 1
BITMAP
0000F0
0001F0
7C03F0
3FFFF0
3FF9F8
3CF800
78F800
00F800
00F800
03FFC0
1FFFE0
3CF3E0
78F3E0
F8F3E0
F9F3E0
F9F3C0
79F780
7FFE00
1DE000
01E000
01E000
03E000
3FFF00
3C1F00
7C1F00
781F00
701F00
001F00
000E80
ENDCHAR
STARTCHAR char76
ENCODING 92
SWIDTH 3188 0
DWIDTH 93 0
BBX 21 30 2 -2
BITMAP
0000F0
0001F0
7C03F0
3FFFF0
3FF9F8
3C7800
787800
007800
007800
00FFE0
0FF9F0
1E79F0
3C78F0
3CF9F0
7CF9E0
3CFF80
3FF800
1EF000
00F780
00FFC0
00F3E0
01F3E0
01F3C0
01FF80
07E000
FC0000
F80000
F80000
F00000
E00000
ENDCHAR
STARTCHAR char77
ENCODING 93
SWIDTH 4525 0
DWIDTH 132 0
BBX 31 27 1 1
BITMAP
0001E000
0003E000
F807E000
7FFFE000
7FF3F000
78F00000
F0F00000
00F00000
00F00000
01FF0F80
0FFFC780
3DF3C780
79F3C780
79F3FFFC
F9F3C07C
F9E7C07C
F9E7803C
7FFE000E
7FE00000
03E00000
03E00000
03E00000
03C00000
03C00000
03C00000
07E00000
03E00000
ENDCHAR
STARTCHAR char96
ENCODING 96
SWIDTH 2331 0
DWIDTH 68 0
BBX 14 21 2 1
BITMAP
07E0
1CF0
3878
7878
7078
7078
F078
F078
F078
F078
F078
F078
F078
F078
F078
F078
F078
F078
F078
F0F8
787C
ENDCHAR
STARTCHAR char97
ENCODING 97
SWIDTH 3428 0
DWIDTH 100 0
BBX 22 21 2 1
BITMAP
07F000
1C7800
383C00
783C00
783C00
703C00
F03C3C
F03C78
F03FF8
F03C78
F03C3C
F03C00
F03C00
F03C00
F03C00
F03C00
F07C00
F07C00
F07C00
F07C00
783E00
ENDCHAR
STARTCHAR char98
ENCODING 98
SWIDTH 3428 0
DWIDTH 100 0
BBX 22 23 2 -1
BITMAP
07F000
1C7800
383C00
783C00
783C00
703C00
F03C00
F03C00
F03C00
F03C00
F03C00
F03C00
F03C00
F03C00
F03C00
F03C00
F03C00
F07C38
F07C78
F87FF8
783CF8
00007C
000030
ENDCHAR
STARTCHAR char99
ENCODING 99
SWIDTH 2331 0
DWIDTH 68 0
BBX 14 21 2 1
BITMAP
07E0
1CF0
3878
7878
7078
7078
F078
F078
F078
F078
F078
F078
F078
F078
F878
F078
0078
0078
0078
0078
007C
ENDCHAR
STARTCHAR char100
ENCODING 100
SWIDTH 3291 0
DWIDTH 96 0
BBX 21 21 2 1
BITMAP
07F000
1C7800
383C00
783C00
783C00
703C00
F03C00
F03C00
F03C00
F03C00
F03C00
F03C00
F03C00
F03C00
F03C00
F03FF0
F07C78
F07878
F07878
F87CF8
787FF0
ENDCHAR
STARTCHAR char101
ENCODING 101
SWIDTH 3291 0
DWIDTH 96 0
BBX 22 21 1 1
BITMAP
000FE0
0038F0
007078
00F078
00F078
00E078
01E078
3FE078
F9E078
79E078
79E078
71E078
E1E078
01E078
01E078
01E078
01E0F8
01E0F8
01E0F8
01F0F8
00F07C
ENDCHAR
STARTCHAR char102
ENCODING 102
SWIDTH 2468 0
DWIDTH 72 0
BBX 15 21 2 1
BITMAP
07F0
1C78
383C
783C
783C
703C
F03C
F03C
F03C
F03C
F03C
F03C
F03C
F03C
F03C
F03E
F000
F000
F000
F000
7800
ENDCHAR
STARTCHAR char103
ENCODING 103
SWIDTH 3291 0
DWIDTH 96 0
BBX 21 24 2 -3
BITMAP
03E000
0FF000
38F800
707800
707800
F07800
F07800
F07800
F07800
F07800
F07800
F07800
F07800
F07800
FC7800
607800
007800
007810
007FF0
3FE1F0
3E00F0
3C00F8
3C0000
700000
ENDCHAR
STARTCHAR char104
ENCODING 104
SWIDTH 2880 0
DWIDTH 84 0
BBX 21 24 0 1
BITMAP
0000F0
0001F0
F803E0
7DFFF0
7F01F8
7C0000
780000
803C00
01FE00
078F00
070F80
0F0780
1F0780
1F0780
1E0780
1E0780
1E0F80
1E0F80
1E0F80
1E0F80
1E0F80
1F0F80
1F0F80
0F87C0
ENDCHAR
STARTCHAR char105
ENCODING 105
SWIDTH 3565 0
DWIDTH 104 0
BBX 25 24 0 1
BITMAP
0000E000
0003E000
F803E000
7FFFE000
7F01F000
7C000000
78000000
80380000
01FE0000
070F0000
0F0F0000
0F0F0000
1E0F0000
1E0F0F80
1E0F1F00
1E0FFF00
1E0F0F00
1E0F0F80
1E0F0000
1E0F0000
1E0F0000
1E0F0000
1F0F0000
0F0F8000
ENDCHAR
STARTCHAR char106
ENCODING 106
SWIDTH 3565 0
DWIDTH 104 0
BBX 25 26 0 -1
BITMAP
0000F000
0003E000
F803E000
7FFFE000
7F01F000
7C000000
78000000
80380000
01FE0000
070F0000
0F0F0000
0F0F0000
1E0F0000
1E0F0000
1E0F0000
1E0F0000
1E0F0000
1E0F0000
1E0F0000
1E0F0000
1E0F0300
1E0F0F00
1F0FFF00
0F0FFF00
00001F80
00000E00
ENDCHAR
STARTCHAR char107
ENCODING 107
SWIDTH 2880 0
DWIDTH 84 0
BBX 21 24 0 1
BITMAP
0000F0
0001E0
F803E0
7DFFF0
7F01F8
7C0000
780000
803C00
01FE00
078F00
070F80
0F0F80
0F0780
1E0780
1E0780
1E0780
1E0F80
1E0F80
1F0F80
000F80
000F80
000F80
000F80
0007C0
ENDCHAR
STARTCHAR char108
ENCODING 108
SWIDTH 3428 0
DWIDTH 100 0
BBX 24 24 0 1
BITMAP
0000F0
0001E0
F803E0
7FFFF0
7F01F0
7C0000
780000
803800
01FE00
078F00
0F0F00
0F0F80
1F0780
1E0780
1E0780
1E0F80
1E0F80
1E0F80
1E0FFE
1E0F1F
1E0F1F
1E0F1E
1F0FBE
0F87F8
ENDCHAR
STARTCHAR char109
ENCODING 109
SWIDTH 3702 0
DWIDTH 108 0
BBX 26 24 1 1
BITMAP
00000780
00000F00
07C01F00
03FFFF80
03F80FC0
03E00000
07C00000
0001C000
000FF000
003C7800
00787800
00787C00
00F83C00
00F03C00
01F03C00
7FF07C00
7CF07C00
7CF07C00
78F07C00
70F07C00
80F07800
00F07C00
00F87C00
00F87E00
ENDCHAR
STARTCHAR char110
ENCODING 110
SWIDTH 2880 0
DWIDTH 84 0
BBX 21 24 0 1
BITMAP
0000F0
0001E0
F803E0
7DFFF0
7F01F8
7C0000
780000
803800
01FE00
078F00
070F80
0F0780
1F0780
1F0780
1E0780
1E0780
1E0780
1E0F80
1E07C0
1E0000
1E0000
1F0000
1F0000
0F8000
ENDCHAR
STARTCHAR char107
ENCODING 111
SWIDTH 3017 0
DWIDTH 88 0
BBX 25 30 0 -5
BITMAP
0000F000
0001E000
F803E000
7DFFF000
7F01F800
7C000000
78000000
803C0000
01FE0000
078F0000
070F8000
0F0F8000
0F078000
1E078000
1E078000
1E078000
1E0F8000
1E0F8000
1E0F8000
1E0F8000
1F8F8000
0C0F8000
000F8000
0007C100
0007FF00
03FE1F00
03E00F00
03C00F80
03C00000
07000000
ENDCHAR
STARTCHAR char112
ENCODING 112
SWIDTH 3291 0
DWIDTH 96 0
BBX 22 21 1 1
BITMAP
007C00
003E00
003E00
003C00
003C00
003C00
007DFC
3FFFFC
7C7C78
7C7C7C
78783C
787800
E07800
007800
00F800
00F800
00F800
00F000
00F000
00F800
00F000
ENDCHAR
STARTCHAR char113
ENCODING 113
SWIDTH 3291 0
DWIDTH 96 0
BBX 22 21 1 1
BITMAP
007C00
003E00
003E00
003C00
003C00
003C00
007DFC
3FFFFC
7C7C78
7C7C7C
78783C
787800
E07818
0078F8
00FFF8
00F9F8
00F8FC
00F000
00F000
00F800
00F000
ENDCHAR
STARTCHAR char114
ENCODING 114
SWIDTH 3291 0
DWIDTH 96 0
BBX 22 23 1 -1
BITMAP
007C00
003E00
003E00
003C00
003C00
003C00
007DFC
3FFFFC
7C7C78
7C7C7C
78783C
787800
E07800
007800
00F800
00F800
00F800
00F830
00F8F0
00FFF0
00FFF0
0001F8
0000F0
ENDCHAR
STARTCHAR char115
ENCODING 115
SWIDTH 3702 0
DWIDTH 108 0
BBX 24 23 2 -1
BITMAP
003E00
001F00
001F00
001F00
001F00
001E00
001E1F
11FFFE
0F9E1E
0F1E1F
0F1E0F
1E1E00
181E00
003E00
003E00
007C00
00F800
1FC000
F80000
F80000
F80000
F00000
E00000
ENDCHAR
STARTCHAR char116
ENCODING 116
SWIDTH 3291 0
DWIDTH 96 0
BBX 22 21 1 1
BITMAP
007C00
003E00
003E00
003C00
003C00
003C00
007DFC
3FFFFC
7C7C78
7C7C7C
78783C
787800
E07800
007800
00FFE0
00FBF0
00F9F0
00F9F0
00F9E0
00FFC0
00F000
ENDCHAR
STARTCHAR char117
ENCODING 117
SWIDTH 3291 0
DWIDTH 96 0
BBX 22 24 1 1
BITMAP
0F8000
07C000
07C000
0FFC00
003E00
003E00
003C00
003C00
003C00
007DFC
3FFFFC
7C7C78
7C7C7C
78783C
787800
E07800
007800
00F800
00F800
00F800
00F000
00F000
00F800
00F000
ENDCHAR
STARTCHAR char118
ENCODING 118
SWIDTH 3154 0
DWIDTH 92 0
BBX 21 22 1 1
BITMAP
003E00
00EF80
01E780
01E780
01E780
01E700
01FE00
00F800
00F800
7FFFF8
7C7CF0
7CF8F0
78F8F8
70F078
80F000
00F000
00F000
00F000
00F000
00F000
01F000
00F800
ENDCHAR
STARTCHAR char119
ENCODING 119
SWIDTH 3428 0
DWIDTH 100 0
BBX 22 24 2 -3
BITMAP
00FC00
007C00
007C00
007C00
007C00
007FFC
7FF87C
78787C
78783C
F0F800
C0F800
00F800
00F800
00F000
00F000
00F000
00F000
00F060
87FFE0
7E01E0
F801E0
F800F0
F00000
C00000
ENDCHAR
STARTCHAR char120
ENCODING 120
SWIDTH 3154 0
DWIDTH 92 0
BBX 21 24 1 1
BITMAP
000078
0001F0
3E01F0
3EFFF0
1FF8F8
3E7800
387800
007800
007800
00FBF0
7FFFF0
7CF8F0
7CF0F0
78F078
F0F000
00F000
01F000
01F000
01F000
01F000
01E000
01E000
01F000
01F000
ENDCHAR
STARTCHAR char121
ENCODING 121
SWIDTH 3154 0
DWIDTH 92 0
BBX 21 24 1 1
BITMAP
000078
0001F0
3E01F0
3EFFF0
1FF8F8
3E7800
387800
007800
007800
00FBF0
7FFFF0
7CF8F0
7CF0F0
78F078
F0F000
00F000
01F0E0
01F3E0
01FFE0
01F3E0
01E3F0
01E000
01F000
01F000
ENDCHAR
STARTCHAR char122
ENCODING 122
SWIDTH 3154 0
DWIDTH 92 0
BBX 21 25 1 0
BITMAP
000078
0001F0
3E01F0
3EFFF0
1FF8F8
3E7800
387800
007800
007800
00FBF0
7FFFF0
7CF8F0
7CF0F0
78F078
F0F000
00F000
00F000
01F000
01F000
01E000
01E070
01E1F0
01FFE0
01E1F0
0001F0
ENDCHAR
STARTCHAR char123
ENCODING 123
SWIDTH 3428 0
DWIDTH 100 0
BBX 23 26 2 -2
BITMAP
00003C
20007C
1F00FC
1F7FFC
1FFE7E
1F3E00
3C3C00
003C00
003C00
003FFC
3FFFFC
3E7C7C
3C7C7C
3C783E
787800
007800
00F800
00F000
01F000
03C000
0F0000
F80000
F80000
F80000
F00000
E00000
ENDCHAR
STARTCHAR char124
ENCODING 124
SWIDTH 3154 0
DWIDTH 92 0
BBX 21 24 1 1
BITMAP
000078
0001F0
3E01F0
3EFFF0
1FF8F8
3E7800
387800
007800
007800
00FBF0
7FFFF0
7CF8F0
7CF0F0
78F078
F0F000
00F000
00F000
01FFC0
01F7C0
01E3C0
01E3C0
01F3C0
01FF80
01E000
ENDCHAR
STARTCHAR char122
ENCODING 125
SWIDTH 3291 0
DWIDTH 96 0
BBX 23 26 0 1
BITMAP
3001E0
F803E0
7807E0
7FFFE0
79F1C0
01E000
01E200
01FE00
001E00
001E00
001E00
003E3C
0FFFFC
1F3E3C
1F3C3C
1E3C1E
3C3C00
003C00
007C00
007C00
007C00
007800
007800
007800
007C00
007C00
ENDCHAR
STARTCHAR char126
ENCODING 126
SWIDTH 3291 0
DWIDTH 96 0
BBX 23 26 1 1
BITMAP
00003E
00003E
0F803C
0F8078
0F8FC0
0FFF80
00E780
01E780
01E780
01E700
01FF00
00FC00
007800
1FFBF8
7C7FF8
7C78F8
7878F8
78F87C
E0F800
00F800
00F000
00F000
00F000
00F000
00F800
00F800
ENDCHAR
STARTCHAR char127
ENCODING 127
SWIDTH 3428 0
DWIDTH 100 0
BBX 23 25 2 -3
BITMAP
20001E
1E003C
1F7FFC
1FFE3C
1E1E3C
181E00
003E00
003E00
00FFFC
3FFCF8
3E3C78
3C3C3C
387C00
007C00
007C00
007800
007800
007800
00F800
00FFF0
7FFFF0
7C00F0
F800F0
F00038
E00000
ENDCHAR
STARTCHAR char256
ENCODING 128
SWIDTH 2880 0
DWIDTH 84 0
BBX 19 21 1 1
BITMAP
003E00
003E00
001E00
001E00
03FE00
3F3E00
3E3FE0
3E03E0
7C03E0
F003E0
0003E0
0003C0
0003C0
0007C0
0007C0
0007C0
0007C0
0007C0
0007C0
0007C0
000780
ENDCHAR
STARTCHAR char257
ENCODING 129
SWIDTH 3840 0
DWIDTH 112 0
BBX 26 21 1 1
BITMAP
007C0000
003E0000
003C0000
003C0000
03FC0000
3F3C0000
3E3FC000
3C03E000
7C03C000
F003C000
0007FFC0
0007E780
0007C780
0007C7C0
000783C0
00078000
00078000
000F8000
000F8000
000FC000
00070000
ENDCHAR
STARTCHAR char258
ENCODING 130
SWIDTH 3428 0
DWIDTH 100 0
BBX 23 23 1 -1
BITMAP
007C00
003E00
003C00
003C00
03FC00
3F3C00
3E3FC0
3C03E0
7C03C0
F007C0
0007C0
000780
000F80
000F80
000F00
001F00
001F00
001E0C
003E3C
003FFC
003FFC
00007E
00003C
ENDCHAR
STARTCHAR char259
ENCODING 131
SWIDTH 3017 0
DWIDTH 88 0
BBX 19 23 2 -1
BITMAP
007C00
003E00
003E00
003E00
07FE00
3E3C00
3E7FE0
3C03E0
7803E0
6003E0
0003E0
0003E0
0003E0
0007C0
000F80
003E00
03F000
FE0000
780000
780000
F80000
F00000
C00000
ENDCHAR
STARTCHAR char260
ENCODING 132
SWIDTH 3702 0
DWIDTH 108 0
BBX 25 21 1 1
BITMAP
003E0000
003E0000
001E0000
003E0000
03FE0000
3F3C0000
3E3FE000
3E03E000
7C03E000
F003E000
0003E000
0003C000
0003C000
0007C000
0007DF00
0007FF00
0007CF80
00078780
00078F00
0007FF00
0007DC00
ENDCHAR
STARTCHAR char261
ENCODING 133
SWIDTH 2605 0
DWIDTH 76 0
BBX 17 21 1 1
BITMAP
00F800
00F800
007800
07F800
1EF800
3CF000
3CFF80
780F80
780F80
F00F80
000F80
000F00
000F00
001F00
001F00
001F00
001F00
001E00
001F00
001F00
001E00
ENDCHAR
STARTCHAR char262
ENCODING 134
SWIDTH 3977 0
DWIDTH 116 0
BBX 27 21 1 1
BITMAP
00001FC0
0007FBE0
001EF3E0
0038F3E0
0078F3C0
03F8FF80
7EF0F000
7CF00000
7CF00000
78F80000
E0FFC000
007FE000
0003E000
0003E000
0003E000
0003C000
0003C000
0003C000
0003C000
0007C000
0003E000
ENDCHAR
STARTCHAR char264
ENCODING 136
SWIDTH 4388 0
DWIDTH 128 0
BBX 30 20 1 1
BITMAP
007C0000
007C0000
007C0000
007C0000
3FFC0000
3E780000
7C7FC000
7C07C000
F007C7F0
0007FF78
000F9F3C
000F9E3C
000F1E7C
000F1FF8
001F0E60
001F0000
001E0000
001E0000
003E0000
001F0000
ENDCHAR
STARTCHAR char266
ENCODING 138
SWIDTH 4388 0
DWIDTH 128 0
BBX 30 20 1 1
BITMAP
00F00000
00F80000
00F80000
00F80000
3FF80000
3CF00000
7DFF9F00
780F9F00
F00F1E00
000F3E00
001FFE00
001F3E00
001E3FF8
001E00F8
003E00F8
003E0078
003C003C
007C0000
007C0000
003E0000
ENDCHAR
STARTCHAR char204
ENCODING 139
SWIDTH 2880 0
DWIDTH 84 0
BBX 19 23 1 1
BITMAP
01F000
00F000
00F000
00F000
7FF000
7DF000
79FF00
780F00
F01F00
001F00
001F00
001E00
001E00
003E00
007E00
07FFC0
7C03E0
7C03E0
7C03E0
7803E0
6003C0
0003C0
0003E0
ENDCHAR
STARTCHAR char268
ENCODING 140
SWIDTH 3154 0
DWIDTH 92 0
BBX 21 22 1 1
BITMAP
00F800
00F800
00F800
00F800
7FF800
78F800
78FF80
780F80
F00F80
000F00
000F00
001F00
001FF8
001E78
001E38
003E38
007FF0
0FE000
0F0000
0F0000
1E0000
1C0000
ENDCHAR
STARTCHAR char269
ENCODING 141
SWIDTH 4251 0
DWIDTH 124 0
BBX 29 20 1 1
BITMAP
00F80000
00F80000
00F80000
00F80000
3FF80000
3CF00000
7CFF8000
780F8000
F00F9F00
000F1F00
000FFE00
001FFFF0
001F01F0
001E01F0
003E00F8
003E0000
003E0000
003C0000
007C0000
003E0000
ENDCHAR
STARTCHAR char192
ENCODING 144
SWIDTH 1782 0
DWIDTH 52 0
BBX 11 21 1 1
BITMAP
FC00
7C00
7C00
7C00
7C00
7800
7FE0
7BE0
03E0
03E0
07C0
07C0
07C0
0F80
0F80
0F80
0F80
1F00
1F00
1F00
1F80
ENDCHAR
STARTCHAR char193
ENCODING 145
SWIDTH 2605 0
DWIDTH 76 0
BBX 17 21 1 1
BITMAP
FC0000
7C0000
7C0000
7C0000
7C0000
7C0000
7FE000
7BE000
03E000
03E080
07FF00
07CF00
07CF00
0F8F80
0F8300
0F8000
0F8000
1F0000
1F0000
1F0000
1F8000
ENDCHAR
STARTCHAR char194
ENCODING 146
SWIDTH 2194 0
DWIDTH 64 0
BBX 14 24 1 -2
BITMAP
7C00
7C00
7C00
7C00
7800
F800
FFF0
F3E0
03E0
07E0
07C0
0FC0
0F80
1F80
1F00
3F00
3E00
7E00
7C38
7FF8
7FF8
00F8
00FC
0078
ENDCHAR
STARTCHAR char195
ENCODING 147
SWIDTH 2605 0
DWIDTH 76 0
BBX 17 21 2 1
BITMAP
00FF00
0F9F00
3E1F00
7C1F00
7C0780
780000
F80000
F80000
F80000
F80000
FCF000
7FF000
00F000
00F000
00F000
01F000
01F000
01F000
01E000
01F000
01E000
ENDCHAR
STARTCHAR char196
ENCODING 148
SWIDTH 2194 0
DWIDTH 64 0
BBX 13 21 2 1
BITMAP
7800
7800
7800
7800
7800
7800
7FC0
77C0
07C0
0F80
0F80
1F00
1F00
3E00
3EF0
7FF8
7CF8
F8F8
F8F0
FBF0
7F00
ENDCHAR
STARTCHAR char197
ENCODING 149
SWIDTH 2468 0
DWIDTH 72 0
BBX 16 21 1 1
BITMAP
1FF0
7CF8
7CF8
78F8
78F8
E0F0
01F0
01DF
001F
003E
003E
007C
007C
00F8
00F8
00F8
01F0
01F0
03E0
03E0
03E0
ENDCHAR
STARTCHAR char198
ENCODING 150
SWIDTH 3017 0
DWIDTH 88 0
BBX 20 22 1 1
BITMAP
000FC0
03FDE0
1E78F0
3C78F0
7C79F0
7C79E0
F87FC0
F83000
F80000
F80000
F80000
FFF000
38F800
00F800
00F800
00F800
00F800
00F000
01F000
01F000
01F000
01F800
ENDCHAR
STARTCHAR char279
ENCODING 151
SWIDTH 2742 0
DWIDTH 80 0
BBX 17 23 2 -2
BITMAP
00FF80
079F00
1E1F00
3C0F00
7C0780
7C0000
780000
780000
F80000
F80000
7FE000
3FF000
01F000
01F000
01F000
01E000
01E000
03E000
BFFF00
780F00
F80F00
F80780
E00000
ENDCHAR
STARTCHAR char280
ENCODING 152
SWIDTH 3017 0
DWIDTH 88 0
BBX 22 23 0 1
BITMAP
000078
7C00F8
7C01F8
7FFFF8
7C7874
E0F800
00F800
00F000
00F000
00FF80
00E780
000F80
000F80
001F00
001F00
001E00
003E00
003E00
007C00
007C00
007C00
00FC00
007800
ENDCHAR
STARTCHAR char281
ENCODING 153
SWIDTH 3565 0
DWIDTH 104 0
BBX 25 23 0 1
BITMAP
00007C00
7C00F800
7C03F800
7FFFFC00
7C783000
E0780000
00F80000
00F80000
00F80000
00FFC000
00E7C000
000F8000
000FFF80
000F1F00
001F0F00
001F0F80
003E0000
003E0000
003E0000
007C0000
007C0000
007C0000
007C0000
ENDCHAR
STARTCHAR char282
ENCODING 154
SWIDTH 3154 0
DWIDTH 92 0
BBX 22 24 0 0
BITMAP
000078
7C00F8
7C03F8
7FFFF8
7C7874
E0F800
00F800
00F800
00F000
00FF80
00E780
000F80
000F80
000F00
001F00
001E00
003E00
003E00
003C00
007C78
007CF8
00FFF8
0078F8
00007C
ENDCHAR
STARTCHAR char200
ENCODING 155
SWIDTH 3017 0
DWIDTH 88 0
BBX 22 25 0 1
BITMAP
380078
7E00F8
3FFFF8
3E78F8
7C7874
F07800
00F800
07FFF0
0F03E0
1E03E0
3E01F0
3C00F0
7C0000
3C0000
3FFC00
1C7C00
007C00
007C00
007800
00F800
00F800
00F800
00F800
01F800
00E000
ENDCHAR
STARTCHAR char284
ENCODING 156
SWIDTH 3154 0
DWIDTH 92 0
BBX 23 23 0 1
BITMAP
00003C
7C00F8
7E07F8
7FFFFC
7E787E
7C7800
80F800
00F800
00F800
00FFE0
0043E0
0007C0
0007C0
000F80
000F80
001F00
001F00
003FF0
003EF8
007EF8
007CF0
007FF0
007F80
ENDCHAR
STARTCHAR char285
ENCODING 157
SWIDTH 2880 0
DWIDTH 84 0
BBX 21 27 0 1
BITMAP
0000F0
0001F0
7C03F0
7C03F8
7FFF80
7EF800
80F800
00FE00
01FF00
0F3E00
3E1E00
3E3E00
3C3C00
783C00
007FF0
0033E0
0003E0
0003E0
0003C0
0007C0
0007C0
0007C0
000F80
000F80
000F80
001F80
000F80
ENDCHAR
STARTCHAR char286
ENCODING 158
SWIDTH 3291 0
DWIDTH 96 0
BBX 24 25 0 1
BITMAP
000078
F000F8
7C0FF0
7FF8F8
7CF878
78F800
00F87C
03EFFE
0F879F
0F079F
1F0F9E
1F0FFE
1E0300
1F0000
1F7C00
1FFC00
003C00
003C00
007C00
007C00
007C00
007800
007800
00FC00
007C00
ENDCHAR
STARTCHAR char287
ENCODING 159
SWIDTH 2880 0
DWIDTH 84 0
BBX 18 26 2 -2
BITMAP
000700
F00F00
F8FF00
FFCF00
F3C000
03C000
0FFC00
3C3C00
783C00
F81E00
F00000
F00000
F02000
F0F000
FBF000
FFF000
78F000
21F000
01F000
01F000
01E080
7FFF80
7C0780
7C0780
7803C0
700000
ENDCHAR
STARTCHAR char144
ENCODING 160
SWIDTH 2742 0
DWIDTH 80 0
BBX 17 22 2 1
BITMAP
1C0000
3C0000
3C0000
3E0000
3E0000
1E2000
1FE000
17C000
078000
0F0000
1F3800
1FFC00
3E7E00
3C3E00
7C3E00
781E00
781F00
F81F00
F01F00
F01F00
F00F80
F80F00
ENDCHAR
STARTCHAR char145
ENCODING 161
SWIDTH 3840 0
DWIDTH 112 0
BBX 25 22 2 1
BITMAP
1C000000
3C000000
3C000000
3E000000
3E000000
1E200000
1FE00000
17C00000
07800000
0F000000
1F380000
1FFC0000
3E7E0100
3C3EFF00
7C3FFF00
781E1F00
781F1F00
F81F0780
F01F0000
F01F0000
F00F8000
F80F0000
ENDCHAR
STARTCHAR char146
ENCODING 162
SWIDTH 3840 0
DWIDTH 112 0
BBX 25 24 2 -1
BITMAP
1C000000
3C000000
3C000000
3E000000
3E000000
1E200000
1FE00000
17C00000
07800000
0F000000
1F380000
1FFC0000
3E7E0000
3C3E0000
7C3E0000
781E0000
781E0000
F81F0000
F01F0780
F01F1F00
F00FFF00
F80FDF00
00001F80
00000600
ENDCHAR
STARTCHAR char147
ENCODING 163
SWIDTH 2880 0
DWIDTH 84 0
BBX 18 21 2 1
BITMAP
3E0000
1E0000
1E0000
1E0000
1F0000
1F7000
1FE000
03C000
07C000
0F8800
0FFE00
1F3E00
3E1F00
3E1F00
7C0F00
F80F00
F80F80
F80F80
FC0F80
000780
0007C0
ENDCHAR
STARTCHAR char148
ENCODING 164
SWIDTH 3428 0
DWIDTH 100 0
BBX 21 20 2 1
BITMAP
3C0000
7C0000
3C0000
3C0000
3C0000
3C4000
3F8000
170000
0F0000
1E7000
1FF800
3CFC00
3C7C00
787DF0
787FF8
703C78
F03C78
F07C70
F03FE0
F83E00
ENDCHAR
STARTCHAR char149
ENCODING 165
SWIDTH 2742 0
DWIDTH 80 0
BBX 16 22 2 1
BITMAP
7800
F800
F800
FF80
CF00
1E00
1E40
3F80
0780
0F00
0E00
1FF0
3FF8
3CF8
787C
787C
703C
F03C
F03E
F03E
F01E
F81F
ENDCHAR
STARTCHAR char150
ENCODING 166
SWIDTH 2742 0
DWIDTH 80 0
BBX 17 21 2 1
BITMAP
0F0000
1F0000
1F0000
1F0000
0F0000
0F3000
0FE000
01E000
03C000
078000
07FC00
0F3E00
1F1E00
1E1F00
3E1F00
7C1F00
7C0F00
F80F80
F80400
F80000
FC0000
ENDCHAR
STARTCHAR char151
ENCODING 167
SWIDTH 3017 0
DWIDTH 88 0
BBX 21 26 0 1
BITMAP
F000E0
7801E0
7FFFE0
7FE3E0
41E1E0
01E000
01E000
01E000
01E000
01E000
01EE00
003C00
007800
00F800
00F3C0
01FFC0
03E7E0
03C1E0
07C1E0
0781E0
0F81E0
0F01E0
0F01F0
1F01F0
1F00F0
1F80F8
ENDCHAR
STARTCHAR char152
ENCODING 168
SWIDTH 2605 0
DWIDTH 76 0
BBX 17 22 1 1
BITMAP
780000
F80000
F80000
F80000
F80000
F3FC00
FE1E00
DC0F00
3C0F00
380F00
380F00
780F00
780F00
780F00
780F00
780F00
780F00
780F00
780F00
780F00
7C0F00
3C0F80
ENDCHAR
STARTCHAR char153
ENCODING 169
SWIDTH 3565 0
DWIDTH 104 0
BBX 24 22 1 1
BITMAP
780000
F80000
F80000
F80000
F80000
F3F800
FE3C00
DC1E00
3C1E00
381E07
381E3E
781FFE
781F7E
781E3F
781E00
781E00
781E00
781E00
781E00
781E00
781E00
3C1F00
ENDCHAR
STARTCHAR char154
ENCODING 170
SWIDTH 3565 0
DWIDTH 104 0
BBX 24 24 1 -1
BITMAP
780000
F80000
F80000
F80000
F80000
F3F800
FE3C00
DC1E00
3C1E00
381E00
381E00
781E00
781E00
781E00
781E00
781E00
781E00
781E00
781E0E
781E3E
781FFE
3C1E7E
00003F
000018
ENDCHAR
STARTCHAR char155
ENCODING 171
SWIDTH 2605 0
DWIDTH 76 0
BBX 17 22 1 1
BITMAP
700000
F00000
F00000
F00000
F00000
F3FC00
FE1E00
DC0F00
3C0F00
380F00
780F00
780F00
780F00
780F00
780F00
7C0F00
380F00
000F00
000F00
000F00
000F00
000F80
ENDCHAR
STARTCHAR char156
ENCODING 172
SWIDTH 3565 0
DWIDTH 104 0
BBX 23 22 1 1
BITMAP
3C0000
FC0000
7C0000
7C0000
7C0000
7C7E00
7F8F00
7F8780
070780
0F0780
0F0780
0F0780
1E0780
1E0780
1E0F00
1E0F00
1E0FFC
1E0F1E
1E0F1E
1E0F1E
1E0F3C
0F0FFC
ENDCHAR
STARTCHAR char157
ENCODING 173
SWIDTH 2605 0
DWIDTH 76 0
BBX 16 22 1 1
BITMAP
7000
F000
F000
F000
F000
F1FC
FF1E
7E0F
3C0F
3C0F
7C0F
7E0F
1E0F
1E1F
3C1E
3C1E
3C1E
781E
781E
781E
781E
7C1C
ENDCHAR
STARTCHAR char158
ENCODING 174
SWIDTH 2468 0
DWIDTH 72 0
BBX 15 22 1 1
BITMAP
7000
F800
F800
F800
F800
FBF8
FE3C
DC1E
3C1E
3C1E
3C1E
7C1E
781E
781E
781E
783E
781E
7800
7800
7800
7800
7C00
ENDCHAR
STARTCHAR char288
ENCODING 176
SWIDTH 3977 0
DWIDTH 116 0
BBX 27 23 1 1
BITMAP
38000000
F8000000
78000000
78000000
F8000000
F8000000
F9F80000
FF7C0000
7E3C0000
1C3E0000
3C3E0000
3C3EFFC0
3C3FF9E0
3C3EF1E0
3C3EF1E0
7C3EF3E0
7C3E7FC0
7C3E7100
7C3E0000
3C3E0000
3C3E0000
3C3E0000
3E3D0000
ENDCHAR
STARTCHAR char290
ENCODING 178
SWIDTH 4251 0
DWIDTH 124 0
BBX 29 21 1 1
BITMAP
38000000
F8000000
78000000
78000000
F8000000
FBF80000
FF7C0000
4E3C3C00
1C3E3E00
3C3E3C00
3C3E3C00
3C3FFC00
3C3E7C00
3C3E7FF0
7C3E01F0
7C3E00F0
7C3E0078
3C3C0000
3C3C0000
3C3E0000
3E3D0000
ENDCHAR
STARTCHAR char291
ENCODING 179
SWIDTH 3291 0
DWIDTH 96 0
BBX 22 23 1 1
BITMAP
3C0000
FC0000
7C0000
7C0000
7C0000
7C0000
7FFC00
7E1E00
0E1F00
1E0F00
3E0F00
3E0F00
3E0F00
3E0F00
201F00
001F00
03FFF8
03C078
03C0F8
0780F8
0600F8
0000FC
000078
ENDCHAR
STARTCHAR char292
ENCODING 180
SWIDTH 3154 0
DWIDTH 92 0
BBX 21 25 1 -1
BITMAP
780000
F80000
780000
780000
780000
79F800
7F3C00
4E1E00
1E1E00
1E1E00
3E1E00
3E1E00
3C1E00
3C3E00
3C3EF0
3C3FF0
3E3EF8
3E3EF8
183EF0
003FF0
03F800
07C000
078000
078000
070000
ENDCHAR
STARTCHAR char292
ENCODING 181
SWIDTH 3565 0
DWIDTH 104 0
BBX 24 19 1 1
BITMAP
380000
F803C0
F803C0
7807C0
F8F7FE
FFFFFE
FE3C1E
1E3E1F
1C3E0F
3C3E00
3C3E00
3C3E00
3C3E00
3C3E00
3C3E00
3C3E00
3C3E00
3C3E00
3E1D00
ENDCHAR
STARTCHAR char206
ENCODING 184
SWIDTH 3291 0
DWIDTH 96 0
BBX 23 24 0 1
BITMAP
0000F8
3801F8
FC3FF8
7FF9F8
7C78E0
7CF800
E0F800
00F8F8
00FFBC
00FE3E
001E3E
003C3E
003C3E
007C3E
007C3C
007C3C
00783C
00783C
00783C
00F87C
00787C
00787C
00787C
007C7E
ENDCHAR
STARTCHAR char297
ENCODING 185
SWIDTH 4251 0
DWIDTH 124 0
BBX 30 24 0 1
BITMAP
0000F800
3801F000
FC3FF000
7FF9F800
7CF8E000
7CF80000
E0F80000
00F9F000
00FF3C00
00FE3C00
001E3C00
003C3E18
003C3FF8
007C3EF8
007C3C7C
00783C38
00783C00
00783C00
00F87C00
00F87C00
00F87C00
00F87C00
00787C00
007C7C00
ENDCHAR
STARTCHAR char298
ENCODING 186
SWIDTH 4251 0
DWIDTH 124 0
BBX 30 26 0 -1
BITMAP
0000F000
3801F000
FC3FF000
7FF9F800
7CF8E000
7CF80000
E0F80000
00F9F000
00FF7C00
00FE3C00
001E3C00
003C3C00
003C3C00
007C3C00
00783C00
00783C00
00787C00
00F87C00
00F87C00
00F87800
00F87800
00F87878
00F87CF8
007C7FF8
000000F8
0000007C
ENDCHAR
STARTCHAR char299
ENCODING 187
SWIDTH 3291 0
DWIDTH 96 0
BBX 23 24 0 1
BITMAP
0000F8
3801F8
FC3FF8
7FF9F8
7C78E0
7CF800
E0F800
00F8F8
00FFBC
00FE3E
001E3E
003C3E
003C3E
007C3E
007C3C
007C3C
007C3C
007C3C
00203C
00007C
00007C
00007C
00007C
00007E
ENDCHAR
STARTCHAR char202
ENCODING 188
SWIDTH 3565 0
DWIDTH 104 0
BBX 25 24 0 1
BITMAP
0000F000
3801F000
FC3FF000
7FF9F800
7C78E000
7C780000
F0F80000
00F87C00
00FBFF00
00FF0F00
001E0F80
003C0F80
003C0F80
007F0F80
001E0F80
001E0F00
003E0F00
003C0F00
003C0F00
007C1F00
007C1F00
00781F00
007C1F00
00781E00
ENDCHAR
STARTCHAR char301
ENCODING 189
SWIDTH 4114 0
DWIDTH 120 0
BBX 29 24 0 1
BITMAP
0000F800
3801F800
FC3FF800
7FF9F800
7C78E000
7CF80000
E0F80000
00F8F800
00FFBC00
00FE3E00
001E3E00
003C3E00
003C3E00
007C3E00
007C3C00
007C3C00
00783C00
00783C60
00783FF0
00F87CF8
00787CF8
00787CF0
00787FF0
007C7E00
ENDCHAR
STARTCHAR char302
ENCODING 190
SWIDTH 3291 0
DWIDTH 96 0
BBX 23 24 0 1
BITMAP
0000F0
3801F0
FC3FF0
7FF9F8
7CF8E0
7CF800
E0F800
00F9F0
00FF7C
00FE3C
001E3C
003C3C
003C3C
007C3C
00783C
00783C
00787C
00F87E
00F800
00F800
00F800
00F800
00F800
007C00
ENDCHAR
STARTCHAR char304
ENCODING 192
SWIDTH 4800 0
DWIDTH 140 0
BBX 34 25 0 1
BITMAP
0000700000
0001F00000
F801F00000
7C7FF00000
7FF9F80000
7CF8000000
78F8000000
40F8000000
00FBF80000
00FF3C0000
00FE3C0000
001E3C0000
003C3C1800
003C3FFF80
007C3C7BC0
007C3CF3C0
007C3CF3C0
00783CF3C0
00783CFF80
00783C7300
00787C0000
00787C0000
00787C0000
007C7C0000
0078300000
ENDCHAR
STARTCHAR char306
ENCODING 194
SWIDTH 5211 0
DWIDTH 152 0
BBX 37 25 0 1
BITMAP
0000700000
0001F00000
B801F00000
7C3FF00000
7FF9F80000
7CF8000000
78F8000000
40F8000000
00F9F80000
00FF3C0000
00FE1E1E00
001E1E7E00
003E1E7E00
003C3E7C00
003C3FFC00
007C3E7C00
007C3E7FF0
007C3E7FF0
007C3E01F0
007C3C00F8
007C3C0038
007C3C0000
007C3C0000
007C3E0000
0038380000
ENDCHAR
STARTCHAR char307
ENCODING 195
SWIDTH 3977 0
DWIDTH 116 0
BBX 28 31 0 -6
BITMAP
0000F000
0001F000
FC0FF000
7FFDF800
7CF8E000
7CF80000
70F80000
00F8F000
00FFFC00
00FE3C00
001E3E00
003E3E00
003C3E00
003C3E00
007C3E00
007C3C00
007C3C00
007C3C00
007C3C00
007C3C00
007C3C00
007C3C00
007C7FC0
00007FE0
0001C3E0
000701E0
001E01E0
003E01F0
001E0180
001C0000
00100000
ENDCHAR
STARTCHAR char308
ENCODING 196
SWIDTH 4114 0
DWIDTH 120 0
BBX 29 32 0 -6
BITMAP
00007000
0001F000
B801F000
7C3FF000
7FF9F800
7CF80000
78F80000
40F80000
00F9F800
00FF3C00
00FE3C00
001E3E00
003C3E00
003C3E00
007C3E00
007C3C00
007C3C00
007C3C00
007C3DE0
00783FF0
007C3CF8
007C3CF8
007C7CF0
00787FE0
00007E00
00038000
000E0000
003E0000
001E0000
001E0000
001C0000
00200000
ENDCHAR
STARTCHAR char309
ENCODING 197
SWIDTH 4662 0
DWIDTH 136 0
BBX 33 25 0 1
BITMAP
0000700000
0001F00000
B801F00000
7C7FF00000
7FF9F80000
7CF803E000
78F803E000
40F803E000
00FBFBE000
00FF3FFF00
00FE3F9F00
001E3C1F00
003C3C0F80
003C3C0780
007C3C0000
007C3C0000
007C3C0000
007C3C0000
00783C0000
00783C0000
00787C0000
00787C0000
00787C0000
007C7C0000
0078300000
ENDCHAR
STARTCHAR char136
ENCODING 200
SWIDTH 2468 0
DWIDTH 72 0
BBX 15 19 2 1
BITMAP
00F8
0FFC
1E3C
3C3E
7C3E
783E
783E
F83E
F83E
F83C
F03C
F03C
F07C
F07C
F078
F0F8
FFF0
FF00
7800
ENDCHAR
STARTCHAR char137
ENCODING 201
SWIDTH 3565 0
DWIDTH 104 0
BBX 23 19 2 1
BITMAP
00F800
0FFC00
1E3E00
3C3E00
7C3E00
783E00
783E02
F83FFC
F83E7C
F83E3C
F03C3E
F03C1C
F07C00
F07C00
F07800
F8F800
FFF000
FF0000
780000
ENDCHAR
STARTCHAR char138
ENCODING 202
SWIDTH 3565 0
DWIDTH 104 0
BBX 23 22 2 -1
BITMAP
03E000
1FF000
38F800
78F800
F8F800
F0F800
F0F000
F0F000
F1F000
FFDF80
300F00
001F00
001F00
001E00
003E00
003E00
003E0C
007C3C
007FFC
007FFC
00007E
00003C
ENDCHAR
STARTCHAR char139
ENCODING 203
SWIDTH 2605 0
DWIDTH 76 0
BBX 16 21 2 1
BITMAP
03E0
1FF0
38F0
78F8
F8F0
F0F0
F0F0
F1F0
F1E0
FFDF
781F
001F
001E
003E
003E
007C
007C
0078
00F8
00F8
00FC
ENDCHAR
STARTCHAR char140
ENCODING 204
SWIDTH 3291 0
DWIDTH 96 0
BBX 21 21 2 1
BITMAP
03F000
1FF800
3C7800
787800
F87800
F0F800
F0F800
F0F000
F1F000
FFFF80
380F80
001F00
001F00
001E00
003FF0
003EF8
007C78
007C78
0078F0
00FFE0
00F000
ENDCHAR
STARTCHAR char141
ENCODING 205
SWIDTH 2194 0
DWIDTH 64 0
BBX 13 21 2 1
BITMAP
0780
0780
0780
0780
0780
0780
07E0
1CF0
38F8
7878
7878
F078
F0F8
F0F8
F0F0
F0F0
F0F0
F1E0
F3C0
FE00
7000
ENDCHAR
STARTCHAR char142
ENCODING 206
SWIDTH 2605 0
DWIDTH 76 0
BBX 16 21 2 1
BITMAP
001E
01FF
039F
078F
0F0F
0F0F
0F1F
0F1E
0F9C
0FF8
07C0
0700
0E00
1C00
3800
7800
7000
F000
F000
F000
F800
ENDCHAR
STARTCHAR char128
ENCODING 208
SWIDTH 3154 0
DWIDTH 92 0
BBX 21 16 1 4
BITMAP
00FFE0
07FFF0
1E7CF8
3E7CF8
3C78F8
7C7878
7878F8
78F8F8
F8F8F8
F8F8F8
F8F8F0
F8F0F0
F8F9E0
F9FFC0
7FFF00
3C0000
ENDCHAR
STARTCHAR char129
ENCODING 209
SWIDTH 4114 0
DWIDTH 120 0
BBX 27 17 2 3
BITMAP
00FFE000
07FFF000
1E7CF000
3C78F800
3C78F800
7C78F800
78F8F800
78F8F800
F8F8F800
F8F8F000
F8F0F000
F8F1F000
F8F1E7C0
F9FFFFC0
7FFFC7C0
3C0007C0
000003E0
ENDCHAR
STARTCHAR char130
ENCODING 210
SWIDTH 3017 0
DWIDTH 88 0
BBX 20 23 1 -1
BITMAP
000FC0
07FFE0
1EF9E0
3CF1F0
78F1F0
F8F1F0
F8F1F0
F8F1E0
F8F3C0
F9FF80
7FF000
19F000
01F000
01F000
01F000
01E000
01E000
01E060
01E3E0
01EFC0
01FFE0
0003F0
0003E0
ENDCHAR
STARTCHAR char131
ENCODING 211
SWIDTH 3017 0
DWIDTH 88 0
BBX 20 21 1 1
BITMAP
000FC0
07FFE0
1EF9E0
3CF1F0
78F1F0
F8F1F0
F8F1F0
F8F1E0
F8F3C0
F9FF80
7FF000
19F000
01F000
01F000
01F000
01F000
01F000
01E000
01E000
01F000
01E000
ENDCHAR
STARTCHAR char132
ENCODING 212
SWIDTH 3017 0
DWIDTH 88 0
BBX 20 21 1 1
BITMAP
000FC0
07FFE0
1EF9E0
3CF1F0
78F1F0
F8F1F0
F8F1F0
F8F1E0
F8F3C0
F9FF80
7FF000
19F000
01F000
01F180
01FFE0
01F3E0
01E1E0
01E1E0
01E3E0
01FFC0
01E000
ENDCHAR
STARTCHAR char133
ENCODING 213
SWIDTH 4251 0
DWIDTH 124 0
BBX 28 16 2 4
BITMAP
00FBE000
07FFF000
1E79F000
3C78F000
3C78F0F0
78F8F1E0
78F8FFE0
78F8F3E0
F8F0F1F0
F8F0F000
F8F1F000
F8F1E000
F9F1E000
F9FFC000
7FFE0000
3C000000
ENDCHAR
STARTCHAR char134
ENCODING 214
SWIDTH 3291 0
DWIDTH 96 0
BBX 21 22 2 1
BITMAP
000BE0
03FFF0
0F78F8
1E78F8
3C78F8
7C78F8
78F8F8
78F8F8
F8F8F0
78F9E0
7CFFC0
3FFC00
01E000
078000
0F0000
1E0000
3C0000
7C0000
F80000
F80000
F80000
F80000
ENDCHAR
STARTCHAR char184
ENCODING 216
SWIDTH 2194 0
DWIDTH 64 0
BBX 14 20 2 1
BITMAP
0038
387C
7C7C
7C7C
7C7C
7C7C
7FFC
7E78
7C78
7878
7878
7878
78F8
78F8
F8F8
F8F8
F8F8
F8F8
F8F8
F800
ENDCHAR
STARTCHAR char185
ENCODING 217
SWIDTH 3428 0
DWIDTH 100 0
BBX 23 20 2 1
BITMAP
003C00
3C7C00
7C3C00
3C7C00
7C7C00
7C7C0C
7C7C7C
7FFFFC
7F7E7C
7C787E
787800
787800
787800
78F800
F8F800
F8F800
F8F800
F8F800
F8F800
F80000
ENDCHAR
STARTCHAR char186
ENCODING 218
SWIDTH 3291 0
DWIDTH 96 0
BBX 21 21 2 0
BITMAP
003800
38FC00
7C7C00
7C7C00
7C7C00
7C7C00
7FF800
7E7800
787800
787800
787800
78F800
78F800
78F800
F8F800
F8F808
F8F0F0
F8F1F0
F8FFF0
F801F0
0000F8
ENDCHAR
STARTCHAR char187
ENCODING 219
SWIDTH 2194 0
DWIDTH 64 0
BBX 14 20 2 1
BITMAP
0038
38FC
FC7C
7C7C
7C7C
7C7C
79FC
7F78
F878
F878
F8F8
F8F8
F8F8
F8F8
F8F8
00F8
00F8
00F0
00F0
00F8
ENDCHAR
STARTCHAR char188
ENCODING 220
SWIDTH 3017 0
DWIDTH 88 0
BBX 19 20 2 1
BITMAP
001C00
387E00
7C3E00
7C3E00
7C3E00
7C3C00
7FFC00
7E3C00
783C00
783C00
783C00
787C00
787C00
F87FC0
F87FE0
F879E0
F879E0
F879C0
F87FC0
F87800
ENDCHAR
STARTCHAR char189
ENCODING 221
SWIDTH 2880 0
DWIDTH 84 0
BBX 20 20 0 1
BITMAP
0000E0
0001F0
1FC1F0
79E1F0
79F1F0
71F1F0
E1FFF0
01F9E0
01F1E0
01F1E0
01E1E0
01E1E0
01E1E0
01E3E0
01E3E0
01E3E0
03E3E0
03E3C0
03E3E0
03E3E0
ENDCHAR
STARTCHAR char190
ENCODING 222
SWIDTH 2194 0
DWIDTH 64 0
BBX 14 20 2 1
BITMAP
0038
187C
7C7C
7C7C
7C7C
7C7C
7DFC
7F78
7C78
7878
7878
7878
78F8
78F8
F87C
F800
F800
F800
F800
F800
ENDCHAR
STARTCHAR char191
ENCODING 223
SWIDTH 3154 0
DWIDTH 92 0
BBX 20 23 2 -2
BITMAP
003C00
3C7C00
7C3C00
3C3C00
3C3C00
3C7C00
7C7C00
7C7C00
7FFC00
7C7C00
787800
787800
787800
F87800
7CF800
00F800
00F800
00F800
7FFFE0
7C03E0
7801E0
F800F0
E00000
ENDCHAR
STARTCHAR char312
ENCODING 224
SWIDTH 4114 0
DWIDTH 120 0
BBX 30 20 0 1
BITMAP
000000F8
07E01FF8
7EF83CF8
3C7878F8
3C78787C
78787800
8079F800
007F7800
00787800
0078F800
0078F800
0078F000
0078F000
0078F000
00F8F000
00F8F000
00F0F000
00F0F000
00F1F000
00F8F000
ENDCHAR
STARTCHAR char313
ENCODING 225
SWIDTH 4114 0
DWIDTH 120 0
BBX 30 20 0 1
BITMAP
000000F8
07E01FF8
7EF83CF8
3C783CF8
3C7C787C
787C7800
807DF800
007F79F8
00787FF8
007878F0
0078F8F8
0078F8F8
0078F830
0078F000
0078F000
00F8F000
00F8F000
00F8F000
00F8F000
00F8F800
ENDCHAR
STARTCHAR char314
ENCODING 226
SWIDTH 4114 0
DWIDTH 120 0
BBX 30 22 0 -1
BITMAP
000000F8
07E01FF8
7EF83CF8
3C7878F8
3C78787C
78787800
8079F800
007F7800
0078F800
0078F800
0078F800
0078F000
0078F000
0078F000
00F8F000
00F8F000
00F0F0F0
00F0F1E0
00F1FFE0
00F8F9F0
000001F0
000000C0
ENDCHAR
STARTCHAR char315
ENCODING 227
SWIDTH 4114 0
DWIDTH 120 0
BBX 30 20 0 1
BITMAP
000000F8
03E01FF8
7FF03CF8
3C7878F8
3C7878FC
7C787800
F0787800
007FF800
007C7800
0078F800
0078F800
0078F800
0078F000
0078F000
007CF000
0000F000
0000F000
0000F000
0000F000
0000F000
ENDCHAR
STARTCHAR char316
ENCODING 228
SWIDTH 4114 0
DWIDTH 120 0
BBX 30 20 0 1
BITMAP
000000F8
07E01FF8
7EF83CF8
3C7878F8
3C78787C
78787800
8079F800
007F7800
0078F800
0078F800
0078F800
0078F000
0078F000
0078F7C0
00F8FFE0
00F8F1E0
00F0F1E0
00F0F3E0
00F1FFC0
00F8E200
ENDCHAR
STARTCHAR char317
ENCODING 229
SWIDTH 4114 0
DWIDTH 120 0
BBX 30 26 0 1
BITMAP
7807C000
7C078000
7C0F8000
7FFF8000
01E00000
01E00000
01E00000
01E007F8
7FF01EF0
3CF83CF8
3C7878F8
7C7C7834
F87C7800
00787800
00787800
007FF800
0078F800
0078F000
0078F000
0078F000
0078F000
00F8F000
00F0F000
00F0F000
00F0F000
00F8F000
ENDCHAR
STARTCHAR char318
ENCODING 230
SWIDTH 4114 0
DWIDTH 120 0
BBX 30 19 0 1
BITMAP
000001F8
7FF01FF8
3E783CF8
3C7C78F8
7C7C787C
F07C7800
007FF800
007C7800
0078F800
0078F800
0078F000
0078F000
0078F000
00F8F800
00F80000
00F00000
00F00000
00F00000
00F80000
ENDCHAR
STARTCHAR char319
ENCODING 231
SWIDTH 3565 0
DWIDTH 104 0
BBX 24 25 1 -3
BITMAP
F8003F
FE007F
7700EE
7381CE
E381C7
03FFC0
03FFC0
03C3C0
03C3C0
03C3C0
03C3C0
03C3C0
03C3C0
03C3C0
03C3C0
03C3C0
0003C0
0003C0
0003C0
0003C0
00FFFF
00781E
00781E
00700E
006007
ENDCHAR
STARTCHAR char248
ENCODING 232
SWIDTH 1920 0
DWIDTH 56 0
BBX 12 21 1 1
BITMAP
0FE0
38F0
78F0
70F0
F0F0
F0F0
F1E0
F1E0
FBC0
7F00
7C00
7C00
3C00
3E00
3E00
3E00
3E00
3E00
3E00
3E00
1C00
ENDCHAR
STARTCHAR char249
ENCODING 233
SWIDTH 2468 0
DWIDTH 72 0
BBX 16 21 1 1
BITMAP
07F0
3C78
7878
7878
F0F8
F0F8
F1F0
F3E0
FF80
7000
7804
7DFE
3F3E
3E3E
1E1F
1E00
1E00
1E00
1E00
1F00
1F80
ENDCHAR
STARTCHAR char250
ENCODING 234
SWIDTH 3291 0
DWIDTH 96 0
BBX 22 21 1 1
BITMAP
07F000
3C7800
787800
787800
F0F800
F0F800
F1F000
F3E000
FF8000
700200
783C00
7C3C00
3E3C00
3E7C00
1FFC3C
1E3FF8
1E00F8
1E0078
1E007C
1F0000
1F8000
ENDCHAR
STARTCHAR char251
ENCODING 235
SWIDTH 2742 0
DWIDTH 80 0
BBX 17 23 2 -1
BITMAP
007F00
01C700
038780
078780
0F0F80
0F0F80
0F1F00
0F7E00
0FF800
0F0000
078000
078000
078000
03C000
03C000
03E000
01E000
778000
FC0000
F80000
F80000
F00000
E00000
ENDCHAR
STARTCHAR char252
ENCODING 236
SWIDTH 3154 0
DWIDTH 92 0
BBX 21 21 1 1
BITMAP
0FE000
38F000
78F000
70F000
F0F000
F0F000
F1E000
F1E000
FBC000
7F0000
7C0000
7C7FE0
3FFCF0
3E3CF8
3E3CF8
3E3FF8
3E18E0
3E0000
3E0000
3E0000
1C0000
ENDCHAR
STARTCHAR char253
ENCODING 237
SWIDTH 3154 0
DWIDTH 92 0
BBX 20 22 2 -1
BITMAP
01FC00
071E00
0F1E00
0E1E00
1E3E00
1E3C00
1E7C00
1EF800
1FF000
1E0000
1E0000
0F03F0
0F01F0
0F01F0
0781E0
07C3E0
3FF780
F81C00
780000
780000
F00000
E00000
ENDCHAR
STARTCHAR char254
ENCODING 238
SWIDTH 2880 0
DWIDTH 84 0
BBX 19 21 1 1
BITMAP
0FE000
38F000
78F000
70F000
F0F000
F0F7E0
F1FFC0
F1E7C0
FBC7C0
7F03E0
7C0000
7C0000
3C0000
3E0000
3E0000
3E0000
3E0000
3E0000
3E0000
3E0000
1C0000
ENDCHAR
STARTCHAR char208
ENCODING 240
SWIDTH 3017 0
DWIDTH 88 0
BBX 19 21 2 1
BITMAP
007E00
03CF00
078F00
070F00
0F0F00
0F1F00
0F1E00
0F7C00
0FF800
0F8000
078000
078000
07C000
03C000
03E000
03F000
7FFFC0
7C07C0
7C07C0
F803C0
F003E0
ENDCHAR
STARTCHAR char209
ENCODING 241
SWIDTH 3840 0
DWIDTH 112 0
BBX 26 21 1 1
BITMAP
007F0000
01C78000
03878000
07878000
07878000
078F0000
078F0000
07DC0000
07F00000
03C00000
03E7C000
1DFFC000
7C87C000
7C07FF80
7C0F9F80
780F8F80
F01F0FC0
001F0380
001F0000
003F0000
003F0000
ENDCHAR
STARTCHAR char210
ENCODING 242
SWIDTH 3565 0
DWIDTH 104 0
BBX 24 22 1 0
BITMAP
007F00
01C780
038780
078780
078780
078F00
078F00
07DC00
07F000
03C000
03E7C0
1DFFC0
7C87C0
7C0780
7C0F80
780F80
F00F00
001F1E
001F3E
003FFE
001E3E
00003F
ENDCHAR
STARTCHAR char211
ENCODING 243
SWIDTH 2742 0
DWIDTH 80 0
BBX 18 21 1 1
BITMAP
007F00
01C780
038780
078780
078780
078F00
078F00
07DC00
07F000
03C000
03E7C0
1DFFC0
7C03C0
7C07C0
7C07C0
780780
F00780
000780
000780
000F80
0007C0
ENDCHAR
STARTCHAR char212
ENCODING 244
SWIDTH 3840 0
DWIDTH 112 0
BBX 25 22 2 0
BITMAP
01FC0000
071E0000
0E1E0000
0E1E0000
1E1E0000
1E3C0000
1E3C0000
1EF80000
1FE00000
1F000000
0F000000
0F800000
07C00000
07C00000
03F0FE00
0FFFE700
7C03E780
7803C780
7803C780
F803E700
F003FF00
0001E000
ENDCHAR
STARTCHAR char213
ENCODING 245
SWIDTH 3702 0
DWIDTH 108 0
BBX 24 21 2 1
BITMAP
007E00
03CF00
078F00
070F00
0F0F00
0F1FFE
0F1E3E
0F7C3E
0FF81F
0F8004
078000
078000
07C000
03C000
03E000
03F000
7FFFC0
7C07C0
7C07C0
F803C0
F003C0
ENDCHAR
STARTCHAR char214
ENCODING 246
SWIDTH 3291 0
DWIDTH 96 0
BBX 22 21 1 1
BITMAP
00FE00
038F00
078F00
0F0F00
0F0F00
0F1E00
0F1E00
0FBC00
07F000
07C000
03E000
07FFF8
0F81F8
1E01F8
3C01F8
7800FC
780000
780000
F80000
F80000
780000
ENDCHAR
STARTCHAR char215
ENCODING 247
SWIDTH 4251 0
DWIDTH 124 0
BBX 28 25 2 -3
BITMAP
007C0000
03FE0000
079F0000
0F1F0000
0F1F0000
1F1E0000
1F1E0000
1F3C0000
1FF80000
1FC00000
0F800000
0F800000
0FC00000
07C00000
07E00000
03E00000
FFFFC000
7807C000
7803C000
F803E000
F07FFFC0
007C07C0
007803C0
007803E0
00F00010
ENDCHAR
STARTCHAR char224
ENCODING 248
SWIDTH 3154 0
DWIDTH 92 0
BBX 20 24 2 1
BITMAP
007800
007800
007800
00FE00
03CF00
078F00
0F0F00
0F0F00
0F1F00
0F1E00
0F3C00
0FF000
0F8000
0F8000
07C000
07C000
07C000
03E000
07FFC0
7C03C0
7C03C0
7C03E0
7800D0
F00000
ENDCHAR
STARTCHAR char225
ENCODING 249
SWIDTH 3840 0
DWIDTH 112 0
BBX 25 24 2 1
BITMAP
00780000
00780000
00780000
00FE0000
01DF0000
078F0000
078F0000
0F8F0000
0F9F0000
0F9E0000
0FBC0000
07F00000
07C00000
07C78000
1FFF8000
F98F8000
780FFF00
780F3E00
F01F1F00
E01E1F00
003E0F80
003E0000
003E0000
003E0000
ENDCHAR
STARTCHAR char226
ENCODING 250
SWIDTH 3565 0
DWIDTH 104 0
BBX 23 26 2 0
BITMAP
007800
007800
007800
007800
007E00
01DF00
038F00
078F00
078F00
0F8F00
0F9E00
0FBC00
07F000
07C000
07C780
1FFFC0
F98780
780F80
780F00
F81F00
F01E00
003E08
003E7C
003FFC
003E7C
00007E
ENDCHAR
STARTCHAR char227
ENCODING 251
SWIDTH 2742 0
DWIDTH 80 0
BBX 17 26 2 1
BITMAP
007800
007800
007800
007800
007E00
01DF00
038F00
078F00
078F00
0F8F00
0F9E00
0F9C00
07F800
07C000
07C000
0FFF80
3BFF80
F80F80
780F00
780F00
F00F00
E01F00
001F00
001F00
001F80
001E00
ENDCHAR
STARTCHAR char228
ENCODING 252
SWIDTH 3977 0
DWIDTH 116 0
BBX 26 26 2 0
BITMAP
00780000
00780000
00780000
00780000
007E0000
03FF0000
070F0000
0F1F0000
1F1F0000
1F1E0000
1F3E0000
1F7C0000
1FF00000
0F000000
0F800000
0FC00000
07C00000
03E00000
03FC7F00
0FFFF780
7C01E3C0
7C01E3C0
7C01E7C0
F801F780
F000FF00
00006000
ENDCHAR
STARTCHAR char229
ENCODING 253
SWIDTH 3702 0
DWIDTH 108 0
BBX 24 25 2 1
BITMAP
007800
007800
007800
007800
00FE00
03CF00
078F80
0F8F80
0F0F00
0F0FFF
0F1F1E
0FBE1E
0FF81F
0F8000
0FC000
07C000
07E000
03E000
03F000
01F000
3FFFE0
7C03E0
7C03E0
7C01F0
F000F0
ENDCHAR
STARTCHAR char230
ENCODING 254
SWIDTH 3291 0
DWIDTH 96 0
BBX 21 25 2 1
BITMAP
01E000
01E000
01E000
01E000
01FC00
07BE00
0F1E00
1E1E00
1E1E00
1E3E00
1E3C00
1F7800
1FE000
0F8000
0FC000
07FFF0
1F83F0
3C03F0
7803F0
F801F8
F00000
F00000
F00000
F00000
F80000
ENDCHAR
STARTCHAR char215
ENCODING 255
SWIDTH 4251 0
DWIDTH 124 0
BBX 28 28 2 -3
BITMAP
00780000
00780000
00780000
007C0000
03FE0000
079F0000
0F1F0000
0F1F0000
1F1E0000
1F1E0000
1F3C0000
1FF80000
1FC00000
0F800000
0F800000
0FC00000
07C00000
07E00000
03E00000
FFFFC000
7807C000
7803C000
F803E000
F07FFFC0
007C07C0
007803C0
007803E0
00F00010
ENDCHAR
STARTCHAR char240
ENCODING 256
SWIDTH 3291 0
DWIDTH 96 0
BBX 22 27 2 -3
BITMAP
8000F8
7C01F8
7C1FF8
7FF8FC
7CF800
E0F800
01FE00
039F00
070F00
070F00
0F0F00
0F1E00
0F3E00
0FFC00
0F0000
0F0000
0F8000
078000
078000
07C000
0FF000
19FFC0
7807C0
F807C0
F803E0
F00000
E00000
ENDCHAR
STARTCHAR char241
ENCODING 257
SWIDTH 3565 0
DWIDTH 104 0
BBX 25 26 0 -1
BITMAP
00007800
7C00F800
7E7FF800
3FFCFC00
7C7C3000
F8780000
007E0000
01CF0000
03878000
03878000
07878000
07878000
078F0000
079F0000
07FC0000
03C00000
03E18000
03FFC080
0643FF00
1E078F00
1E078F00
1E078780
3C078000
000F8000
000F8000
000F0000
ENDCHAR
STARTCHAR char242
ENCODING 258
SWIDTH 3428 0
DWIDTH 100 0
BBX 24 28 0 -3
BITMAP
000078
7C00F8
7E7FF8
3FFCFC
7C7C30
F87800
007E00
01CF80
038780
078780
078780
078F00
079F00
07FC00
03C000
03E080
03FFC0
06F3C0
0E0780
1E0780
1E0780
3E0780
3C0786
000F3E
000FFE
000F7E
00003F
00001E
ENDCHAR
STARTCHAR char243
ENCODING 259
SWIDTH 3017 0
DWIDTH 88 0
BBX 20 26 2 -1
BITMAP
0003E0
F807C0
7DFFC0
7FF7F0
79F1C0
F1E000
01F800
073C00
0E1E00
0E1E00
1E1E00
1E1E00
1E3C00
1E7C00
1FF000
0F0000
0F8700
0FFF00
190F00
781E00
781E00
781E00
F01E00
003E00
003E00
003C00
ENDCHAR
STARTCHAR char244
ENCODING 260
SWIDTH 3428 0
DWIDTH 100 0
BBX 24 28 0 -3
BITMAP
000038
2000F8
7801F0
7FFFF0
7FF8F8
78F860
F0F800
00FC00
038F00
070F00
0F0F00
0F0F00
0F1F00
0F3E00
0FFC00
0F8000
078000
07C000
07C000
03E000
03F000
07F840
0C7FFE
3C03CF
3E038F
3C038F
3C03FE
0001FC
ENDCHAR
STARTCHAR char245
ENCODING 261
SWIDTH 3565 0
DWIDTH 104 0
BBX 23 28 2 -3
BITMAP
000038
F800F0
7C01F0
7C7FF8
7FF8F8
78F800
E0F800
01FE00
039F00
070F00
070F00
0F0F02
0F1FFE
0F1E3E
0F3E3E
0FFC3E
0F0000
0F0000
0F8000
078000
07C000
07E000
0BFFC0
387FC0
F807C0
F803C0
F801E0
F00000
ENDCHAR
STARTCHAR char246
ENCODING 262
SWIDTH 3428 0
DWIDTH 100 0
BBX 23 26 2 -1
BITMAP
00007C
3F00F8
1F1FF8
1FFCFE
1F3C30
3E3C00
007F80
00E3C0
01C3C0
01C3C0
03C3C0
03C780
03CF80
03FF00
03C000
01E000
01F008
07FFF0
0E00F0
3C00F0
7C00F8
78003C
F80000
F80000
F80000
F80000
ENDCHAR
STARTCHAR char247
ENCODING 263
SWIDTH 4251 0
DWIDTH 124 0
BBX 28 31 2 -3
BITMAP
0000F000
0001F000
7C03F000
7FFFF000
7EF1F800
7CF00000
78F80000
01FE0000
079F0000
0F0F0000
0F1F0000
1F1F0000
1F1E0000
1F3C0000
1F780000
1FE00000
0F800000
0F800000
0FC00000
07C00000
07E00000
03E00000
87FFC000
7F07C000
7803C000
7803E000
F01FFFC0
007E07C0
007803C0
007803E0
00F00010
ENDCHAR
STARTCHAR char176
ENCODING 264
SWIDTH 2057 0
DWIDTH 60 0
BBX 13 20 1 1
BITMAP
03E0
1FF0
7CF8
78F8
78F8
70F8
80F8
00F0
00F0
01F0
01F0
01E0
01E0
03E0
03E0
03E0
03C0
07C0
07C0
03E0
ENDCHAR
STARTCHAR char177
ENCODING 265
SWIDTH 3154 0
DWIDTH 92 0
BBX 21 18 1 1
BITMAP
03F000
1FF800
78F800
787800
787800
707800
C0FFF8
00F8F8
00F0F8
00F0F8
00F070
01F000
01F000
01E000
01E000
01E000
03E000
01F000
ENDCHAR
STARTCHAR char178
ENCODING 266
SWIDTH 3154 0
DWIDTH 92 0
BBX 21 19 1 0
BITMAP
03E000
1FF000
78F800
787800
787800
707800
C0F800
00F800
00F000
00F000
00F000
01F000
01F000
01E000
01E070
01E1F0
03FFF0
01E1F0
0001F8
ENDCHAR
STARTCHAR char179
ENCODING 267
SWIDTH 3017 0
DWIDTH 88 0
BBX 19 20 2 -1
BITMAP
001F80
03FFC0
03E3E0
03E3E0
03C3E0
0303E0
0003E0
0003E0
0003C0
0007C0
0007C0
000F80
001F00
007C00
FFE000
FC0000
FC0000
F80000
F00000
400000
ENDCHAR
STARTCHAR char180
ENCODING 268
SWIDTH 2742 0
DWIDTH 80 0
BBX 18 20 1 1
BITMAP
03F000
1FF800
7CF800
7C7C00
787C00
787800
807800
00F800
00F800
00F800
01F000
01F000
01F000
01F780
03FFC0
03E7C0
03E3C0
03E780
07FF80
03FC00
ENDCHAR
STARTCHAR char269
ENCODING 269
SWIDTH 2742 0
DWIDTH 80 0
BBX 18 20 1 1
BITMAP
003F00
01FF80
3FE7C0
79E3C0
F1E3C0
F1E7C0
F1E7C0
FBC7C0
7E0780
000780
000F80
000F80
000F00
000F00
001F00
001F00
001E00
001E00
001E00
001F00
ENDCHAR
STARTCHAR char182
ENCODING 270
SWIDTH 2331 0
DWIDTH 68 0
BBX 15 21 1 1
BITMAP
03C0
03E0
03E0
03E0
03E0
03FC
7FFE
7C3E
783E
787E
C07C
00FC
00F8
00F8
01F0
01F0
03F0
03E0
03E0
03E0
03E0
ENDCHAR
STARTCHAR char328
ENCODING 272
SWIDTH 3840 0
DWIDTH 112 0
BBX 26 21 1 1
BITMAP
01F00000
1FF80000
78F80000
7C7C0000
787C0000
787C0000
E0783F80
007FF7C0
00F9E3C0
00F9E3C0
00F9E3C0
00F1F780
00F1FF00
01F00000
01F00000
01F00000
01E00000
03E00000
03E00000
03F00000
01E00000
ENDCHAR
STARTCHAR char330
ENCODING 274
SWIDTH 3977 0
DWIDTH 116 0
BBX 27 20 1 1
BITMAP
03F00000
7FF80000
78F80000
7878F000
7878F000
F078F000
00F8F000
00FFF000
00F8F000
00F0F000
01F1FFE0
01F007C0
01E003C0
01E003C0
03E003E0
03C00080
03C00000
07C00000
07C00000
03C00000
ENDCHAR
STARTCHAR char331
ENCODING 275
SWIDTH 2468 0
DWIDTH 72 0
BBX 16 21 1 1
BITMAP
03F0
7FF8
787C
787C
707C
6078
00F8
01F8
03F0
1E3E
781F
780F
781F
701F
C01E
003E
003E
003E
003E
007E
003C
ENDCHAR
STARTCHAR char332
ENCODING 276
SWIDTH 3154 0
DWIDTH 92 0
BBX 20 25 2 -1
BITMAP
007C00
0FFE00
1F1E00
1F1F00
1E1F00
1C1F00
001E00
001E00
003E00
003E00
003C00
007C00
007FE0
007BF0
00F9F0
00F9F0
00F9F0
01FFE0
07C300
FC0000
780000
780000
700000
E00000
800000
ENDCHAR
STARTCHAR char332
ENCODING 277
SWIDTH 3428 0
DWIDTH 100 0
BBX 23 20 1 1
BITMAP
03F000
7FF800
78F800
7879F0
7879F0
F079F0
00F9E0
00F9E0
00FFE0
00F03E
01F03E
01F01E
01E01E
03E006
03E000
03C000
03C000
07C000
07C000
07C000
ENDCHAR
STARTCHAR char176
ENCODING 280
SWIDTH 2057 0
DWIDTH 60 0
BBX 13 20 1 1
BITMAP
03E0
1FF0
7CF8
78F8
78F8
70F8
80F8
00F0
00F0
01F0
01F0
01E0
01E0
03E0
03E0
03E0
03C0
07C0
07C0
03E0
ENDCHAR
STARTCHAR char177
ENCODING 281
SWIDTH 3154 0
DWIDTH 92 0
BBX 21 18 1 1
BITMAP
03F000
1FF800
78F800
787800
787800
707800
C0FFF8
00F8F8
00F0F8
00F0F8
00F070
01F000
01F000
01E000
01E000
01E000
03E000
01F000
ENDCHAR
STARTCHAR char178
ENCODING 282
SWIDTH 3154 0
DWIDTH 92 0
BBX 21 19 1 0
BITMAP
03E000
1FF000
78F800
787800
787800
707800
C0F800
00F800
00F000
00F000
00F000
01F000
01F000
01E000
01E070
01E1F0
03FFF0
01E1F0
0001F8
ENDCHAR
STARTCHAR char179
ENCODING 283
SWIDTH 3017 0
DWIDTH 88 0
BBX 19 20 2 -1
BITMAP
001F80
03FFC0
03E3E0
03E3E0
03C3E0
0303E0
0003E0
0003E0
0003C0
0007C0
0007C0
000F80
001F00
007C00
FFE000
FC0000
FC0000
F80000
F00000
400000
ENDCHAR
STARTCHAR char180
ENCODING 284
SWIDTH 2742 0
DWIDTH 80 0
BBX 18 20 1 1
BITMAP
03F000
1FF800
7CF800
7C7C00
787C00
787800
807800
00F800
00F800
00F800
01F000
01F000
01F000
01F780
03FFC0
03E7C0
03E3C0
03E780
07FF80
03FC00
ENDCHAR
STARTCHAR char285
ENCODING 285
SWIDTH 2742 0
DWIDTH 80 0
BBX 18 20 1 1
BITMAP
003F00
01FF80
3FE7C0
79E3C0
F1E3C0
F1E7C0
F1E7C0
FBC7C0
7E0780
000780
000F80
000F80
000F00
000F00
001F00
001F00
001E00
001E00
001E00
001F00
ENDCHAR
STARTCHAR char182
ENCODING 286
SWIDTH 2331 0
DWIDTH 68 0
BBX 15 21 1 1
BITMAP
03C0
03E0
03E0
03E0
03E0
03FC
7FFE
7C3E
783E
787E
C07C
00FC
00F8
00F8
01F0
01F0
03F0
03E0
03E0
03E0
03E0
ENDCHAR
STARTCHAR char168
ENCODING 288
SWIDTH 3702 0
DWIDTH 108 0
BBX 24 16 2 1
BITMAP
003FF0
03FFF8
0E787C
1C783E
3C783E
78781E
78781E
78781E
F0781E
F0781E
F0781E
F0781E
F0781E
F0781E
F0781E
F87C1F
ENDCHAR
STARTCHAR char169
ENCODING 289
SWIDTH 4662 0
DWIDTH 136 0
BBX 31 16 2 1
BITMAP
003FF000
03FFF800
0E787C00
1C783E00
3C783E1E
78781E3C
78781FFC
78781E7E
F0781E3E
F0781E08
F0781E00
F0781E00
F0781E00
F0781E00
F0781E00
F87C1F00
ENDCHAR
STARTCHAR char170
ENCODING 290
SWIDTH 4800 0
DWIDTH 140 0
BBX 32 18 2 -1
BITMAP
003FF000
03FFF800
0E787C00
1C783E00
3C783E00
78781E00
78781E00
78781E00
F0781E00
F0781E00
F0781E00
F0781E00
F0781E00
F0781E3E
F0781FFE
F87C1FBE
0000003F
0000000C
ENDCHAR
STARTCHAR char171
ENCODING 291
SWIDTH 3565 0
DWIDTH 104 0
BBX 23 20 2 1
BITMAP
001FF8
01FFFC
079E3E
1F1E1E
3E1E1E
3C1E1E
7C1E1E
783E1E
F83C1E
F83C3C
F83C3C
FC3C3C
FC3E3C
00003C
00007C
00007C
000078
000078
00007C
00007C
ENDCHAR
STARTCHAR char172
ENCODING 292
SWIDTH 4114 0
DWIDTH 120 0
BBX 27 16 2 1
BITMAP
007FC000
03FFE000
0E79F000
1C78F000
3878F800
78787800
78F07800
70F07800
70F0F800
F0F0F000
F0F0FFC0
F0F0F3E0
F0F0F1E0
F0F0F1E0
F0F0F3C0
F8F8FF80
ENDCHAR
STARTCHAR char173
ENCODING 293
SWIDTH 3017 0
DWIDTH 88 0
BBX 20 17 1 1
BITMAP
01FFC0
0FFBE0
3CF1E0
78F0F0
78F0F0
F0F0F0
F1FCF0
F07800
007800
007800
007800
00F800
00F800
00F000
00F000
00F800
00F000
ENDCHAR
STARTCHAR char174
ENCODING 294
SWIDTH 3428 0
DWIDTH 100 0
BBX 22 18 2 1
BITMAP
000BE0
00FFF0
03F8F0
0E7878
1C7878
387878
387878
787878
707878
707878
F07878
F0787C
F07C00
F06000
F00000
F00000
F80000
F00000
ENDCHAR
STARTCHAR char175
ENCODING 295
SWIDTH 4525 0
DWIDTH 132 0
BBX 30 20 2 -3
BITMAP
00FFF000
073C7800
1E3C7800
1C3C3C00
383C3C00
783C3C00
783C3C00
70783C00
F0783C00
F0783C00
F0783C00
F0783C00
F07C7C00
F8007C00
00007FF8
003FFCF8
003C00F8
003C00F8
0038003C
00700000
ENDCHAR
STARTCHAR char216
ENCODING 296
SWIDTH 4800 0
DWIDTH 140 0
BBX 32 16 2 1
BITMAP
003FFE00
03FF0F00
0E0F0780
1C1E03C0
381E03C0
381E03C0
781E03C0
701E03C0
F01E03C0
F11E03C4
FF9FF3FF
F3DE7BCF
F3DE7BCF
F3DE7BCF
FF9FF3FE
F01E03F0
ENDCHAR
STARTCHAR char217
ENCODING 297
SWIDTH 4937 0
DWIDTH 144 0
BBX 33 17 2 0
BITMAP
001FFE0000
03FF0F0000
0E0E078000
1C1E03C300
381E03FF00
381E03CF00
781E03CF80
701E03C700
F01E03C000
F11E03C000
FF9FF3FE00
F3DE7BFF00
F3DE7BCF00
F3DE7BCF00
FF9FF3CE00
F01E03FC00
0000010000
ENDCHAR
STARTCHAR char218
ENCODING 298
SWIDTH 5211 0
DWIDTH 152 0
BBX 35 19 2 -2
BITMAP
000FFF0000
01FF83C000
0F0780E000
1E0780E000
3C0F00F000
380F00F000
780F00F000
780F00F000
F00F00F000
F18F00F000
FFCFFCF000
F3EF3CF000
F1EF3CF000
F3CF3CF000
FF8FF8FFE0
F00F00FFC0
00000003C0
00000003E0
00000001C0
ENDCHAR
STARTCHAR char219
ENCODING 299
SWIDTH 4525 0
DWIDTH 132 0
BBX 31 19 1 1
BITMAP
01FFFF80
070783C0
1C0781E0
380F00F0
3F8FF0F0
7FCFF8F0
F3CE79F0
F3DE79F0
F3DE79E0
FF9FF3E0
601C03C0
000007C0
000007C0
00000FFC
00000FBE
00000F3E
00001F3E
00001FFC
00001C00
ENDCHAR
STARTCHAR char220
ENCODING 300
SWIDTH 5622 0
DWIDTH 164 0
BBX 38 16 2 1
BITMAP
003FFE0000
03FF0F0000
0E0F0780F0
1C1E03CFFC
381E03FF7C
381E03CF3C
781E03CF3C
701E03C7F0
F01E03C000
F31E03C600
FF9FF3FF00
F3DE7BCF00
F3DE7BCF00
F3DE7BCF00
FF9FF3FE00
F01E03F000
ENDCHAR
STARTCHAR char221
ENCODING 301
SWIDTH 4525 0
DWIDTH 132 0
BBX 31 20 1 1
BITMAP
00FFFF00
0707C780
1E07C780
1C078780
3FC787FE
79EF87BE
79EF079E
F9EF079E
FBC7CFBC
FF878FF8
60078400
000F8000
000F0000
000F0000
001FF800
001E7C00
001E3C00
003E7800
003FF000
001C0000
ENDCHAR
STARTCHAR char222
ENCODING 302
SWIDTH 5211 0
DWIDTH 152 0
BBX 35 20 2 1
BITMAP
007FDFE000
03C7F1F000
070780F000
0E0780F800
1E07FC7FC0
3C073E77E0
3C0F1EF3E0
380F1EF3E0
780F3CF3C0
780FF8FF80
780E00E000
F800000000
F3C0000000
FFE0000000
F3E0000000
F3E0000000
F3C0000000
F3C0000000
FF00000000
E000000000
ENDCHAR
STARTCHAR char223
ENCODING 303
SWIDTH 5074 0
DWIDTH 148 0
BBX 34 22 2 -3
BITMAP
001FFC0000
03FF0F0000
0F0F078000
1C0F038000
381E03C000
381E03C000
781E03C000
701E03C000
701E03C000
F01E03C000
FF9FF3C000
F3DE73C000
F3DE73C000
F3DE73C000
FF9EF3C000
FE1FC7DF80
00000FFF80
0003F80780
0001E00780
0001E003C0
0001E00000
0001C00000
ENDCHAR
STARTCHAR char376
ENCODING 304
SWIDTH 2605 0
DWIDTH 76 0
BBX 16 23 2 1
BITMAP
0F80
0780
0780
0780
0FE0
3FF0
38F8
7878
78F8
78F8
7DF0
7FE0
03E0
07C0
0F80
1FFC
3E7C
7C3C
F83E
F03E
F03E
FC3E
E01F
ENDCHAR
STARTCHAR char377
ENCODING 305
SWIDTH 3702 0
DWIDTH 108 0
BBX 24 23 2 1
BITMAP
07C000
03C000
03C000
03C000
07F000
1FF800
3C7C00
3C7C00
3C7C00
3C7C00
3EF800
3FF000
03E000
07E000
0FC000
1FFE0E
3F3FFE
3E1E3E
7C1F3E
F81F3F
F81F0E
F81F00
C00F80
ENDCHAR
STARTCHAR char378
ENCODING 306
SWIDTH 3702 0
DWIDTH 108 0
BBX 24 25 2 -1
BITMAP
0F8000
078000
078000
078000
0FE000
3FF000
78F000
78F800
78F800
78F000
7DF000
7FE000
07C000
0F8000
0FC000
1FF800
3EF800
7C7C00
F87C00
F03C02
F03E3E
F83EFE
C03FFE
00003F
000008
ENDCHAR
STARTCHAR char379
ENCODING 307
SWIDTH 2605 0
DWIDTH 76 0
BBX 16 23 2 1
BITMAP
0F80
0780
0780
0780
0FE0
3FF0
38F8
7878
78F8
78F8
7DF0
7FE0
03E0
07C0
0F80
1FFC
3E7C
7C3C
F83C
FC3E
403E
003E
001F
ENDCHAR
STARTCHAR char380
ENCODING 308
SWIDTH 3428 0
DWIDTH 100 0
BBX 23 23 1 1
BITMAP
03E000
01E000
01E000
01E000
03F800
0F7C00
1E3E00
1E3E00
1E3E00
1E3C00
1E7C00
1FF800
01F000
03E000
07C000
0FFC00
1F9E18
1F1FFC
3E1F3E
7C1F3E
7C1F3C
FC0FFC
7C0FE0
ENDCHAR
STARTCHAR char381
ENCODING 309
SWIDTH 3154 0
DWIDTH 92 0
BBX 20 23 2 1
BITMAP
0F8000
078000
078000
078000
0FE000
3FF000
38F9E0
787FE0
78FBE0
78F9F0
7DF0E0
7FE000
03E000
07C000
0F8000
1FFC00
3E7C00
7C3C00
F83E00
F03E00
F03E00
FC3E00
E01F00
ENDCHAR
STARTCHAR char382
ENCODING 310
SWIDTH 2468 0
DWIDTH 72 0
BBX 15 23 2 1
BITMAP
0F80
0780
0780
0780
0FE0
1FF0
38F8
78F8
78F8
78F8
7DF0
7FE0
03C0
07C0
0F80
1FFC
3E7C
7C3C
783E
F030
F000
F000
F800
ENDCHAR
STARTCHAR char207
ENCODING 311
SWIDTH 3565 0
DWIDTH 104 0
BBX 22 28 2 -3
BITMAP
0F8000
078000
078000
078000
0FE000
3FF800
3CF800
7CF800
7CF800
7DF800
7FF000
3FE000
07C000
0F8000
1FE000
3EF800
7C7C00
F87C00
F83C00
F83C00
803C00
003C00
003C00
0FFFFC
1E007C
1E003C
3E001C
380000
ENDCHAR
STARTCHAR char201
ENCODING 312
SWIDTH 2605 0
DWIDTH 76 0
BBX 16 19 2 1
BITMAP
07E0
3FF0
78F8
78F8
78F8
78F8
7DF0
7FE0
03C0
07C0
0FF0
1FFC
3E7C
7C3C
F83E
F03E
F03E
FC3E
601F
ENDCHAR
STARTCHAR char201
ENCODING 313
SWIDTH 3565 0
DWIDTH 104 0
BBX 23 19 2 1
BITMAP
0FE000
3DF000
78F800
78F800
78F800
78F800
7DF000
7FE000
07C000
078000
0FE000
1FFC7C
3E7DFC
7C7FFC
F83C7E
F03C00
F03E00
F83E00
E01F00
ENDCHAR
STARTCHAR char202
ENCODING 314
SWIDTH 3702 0
DWIDTH 108 0
BBX 24 21 2 0
BITMAP
03E000
3FF000
79F000
F9F000
F9F000
F1F000
FBE000
7FC000
078000
0F8000
1F0000
1FF000
3EFC00
7C7C00
787C00
F83C02
F83E1E
F03E3E
F83FFE
F03E3F
00001E
ENDCHAR
STARTCHAR char203
ENCODING 315
SWIDTH 2331 0
DWIDTH 68 0
BBX 15 19 1 1
BITMAP
0F80
3FE0
78E0
78F0
F1F0
F1E0
FBE0
7FC0
0780
0F00
1FF0
3FF8
7CF8
7878
787C
7C7C
007C
003C
003E
ENDCHAR
STARTCHAR char204
ENCODING 316
SWIDTH 3291 0
DWIDTH 96 0
BBX 21 19 2 1
BITMAP
03E000
3FF000
79F000
F9F000
F9F000
F1E000
FFE000
7FC000
0F8000
0F0000
1FE000
3FF800
7C7C00
787FF0
F87DF8
F87CF8
F03CF8
F83EF0
F03F80
ENDCHAR
STARTCHAR char203
ENCODING 317
SWIDTH 3291 0
DWIDTH 96 0
BBX 21 19 2 1
BITMAP
07E000
1FF000
78F9F0
78FFF0
78F9F0
78F8F8
7DF020
7FE000
03E000
07C000
0FF000
1FFC00
3E7C00
7C3C00
F83E00
F03E00
F03E00
FC3E00
601F00
ENDCHAR
STARTCHAR char206
ENCODING 318
SWIDTH 2468 0
DWIDTH 72 0
BBX 15 20 2 1
BITMAP
03E0
3FF0
79F0
F9F0
F9F0
F1F0
FBE0
7FC0
0780
0F80
1F00
1FF8
3EFC
7C7C
787C
F83E
F838
F000
F800
F000
ENDCHAR
STARTCHAR char207
ENCODING 319
SWIDTH 3565 0
DWIDTH 104 0
BBX 22 24 2 -3
BITMAP
0FE000
3FF800
3CF800
7CF800
7CF800
7DF800
7FF000
3FE000
07C000
0F8000
1FE000
3EF800
7C7C00
F87C00
F83C00
F83C00
803C00
003C00
003C00
0FFFFC
1E007C
1E003C
3E001C
380000
ENDCHAR
STARTCHAR char368
ENCODING 320
SWIDTH 2194 0
DWIDTH 64 0
BBX 13 19 2 1
BITMAP
01E0
0FF0
3CF0
78F8
78F8
78F8
F8F8
F9F8
FFF8
F0F0
F0F0
F0F0
F1F0
F1F0
F1E0
F1E0
FFC0
FE00
7000
ENDCHAR
STARTCHAR char369
ENCODING 321
SWIDTH 3291 0
DWIDTH 96 0
BBX 21 19 2 1
BITMAP
01E000
0FF000
3CF000
78F800
78F800
78F800
F8F810
F9FFF0
FFFDF0
F0F8F0
F0F0F8
F0F078
F1F000
F1F000
F1E000
F1E000
FFC000
FE0000
700000
ENDCHAR
STARTCHAR char370
ENCODING 322
SWIDTH 2742 0
DWIDTH 80 0
BBX 17 23 2 -1
BITMAP
078000
7FC000
F1E000
F1E000
F1E000
FFE000
F3E000
F3E000
F3E000
FFC000
27C000
07C000
07C000
078000
0F8000
0F8000
0F8000
0F0700
1F0F00
1FFF00
1FDF00
001F80
000F00
ENDCHAR
STARTCHAR char371
ENCODING 323
SWIDTH 1920 0
DWIDTH 56 0
BBX 11 21 2 1
BITMAP
0780
7FC0
F1E0
F1E0
F3E0
FFE0
F3E0
F3E0
F3C0
FFC0
27C0
07C0
07C0
0780
0F80
0F80
0F80
0F00
1F00
1F80
1E00
ENDCHAR
STARTCHAR char372
ENCODING 324
SWIDTH 2468 0
DWIDTH 72 0
BBX 15 21 2 1
BITMAP
0780
7FE0
F1E0
F1E0
F1E0
FFE0
F3E0
F3E0
F3E0
FFC0
27C0
07C0
07C0
0780
0F80
0FFC
0F9E
0F1E
1F3E
1FFC
1FF0
ENDCHAR
STARTCHAR char373
ENCODING 325
SWIDTH 2194 0
DWIDTH 64 0
BBX 13 21 2 1
BITMAP
0380
0F80
0780
0780
0780
07E0
1CF0
38F8
78F8
78F8
FFF8
FCF8
F0F0
F0F0
F0F0
F1F0
F1F0
F1E0
FBC0
FF80
7000
ENDCHAR
STARTCHAR char374
ENCODING 326
SWIDTH 2605 0
DWIDTH 76 0
BBX 16 21 2 1
BITMAP
001E
01FF
039F
078F
0FFF
0F0F
0F1F
0F1E
0F9C
0FF8
07C0
0700
0E00
1C00
3800
7800
7000
F000
F000
F000
F800
ENDCHAR
STARTCHAR char160
ENCODING 328
SWIDTH 3154 0
DWIDTH 92 0
BBX 20 20 2 1
BITMAP
007800
00F800
007800
00F800
00F000
01F000
01E000
03C000
078000
0F0000
1E0000
3DE000
7FF000
79F000
F9F000
F1F1E0
F1FFE0
FBFFE0
FE03E0
7001F0
ENDCHAR
STARTCHAR char161
ENCODING 329
SWIDTH 3291 0
DWIDTH 96 0
BBX 22 23 1 1
BITMAP
007800
01F800
00F800
00F800
01F000
03E000
07C000
0F8000
1F0000
3FF800
7FF800
F8F8F8
F8F1F0
F9FFF0
7FE1F8
03E0FC
03C000
07C000
078000
0F8000
1F0000
1F8000
0F0000
ENDCHAR
STARTCHAR char162
ENCODING 330
SWIDTH 3154 0
DWIDTH 92 0
BBX 20 20 2 1
BITMAP
003800
00FC00
007C00
007800
00F800
00F000
01E000
03C000
078000
0F0000
1E0000
3FE000
7FF1F0
78F1F0
F8F1F0
F8F1F0
F9F1E0
FFFFC0
7C0000
700000
ENDCHAR
STARTCHAR char163
ENCODING 331
SWIDTH 3154 0
DWIDTH 92 0
BBX 21 23 1 1
BITMAP
007000
01F000
00F000
00F000
01E000
03C000
0F8000
1F0000
3E0000
7FE000
F9F000
F8F000
F8F000
F9FFF0
7FFFF0
01F1F0
01F1F0
01E1F0
01E078
01E000
01E000
03E000
01F000
ENDCHAR
STARTCHAR char164
ENCODING 332
SWIDTH 3702 0
DWIDTH 108 0
BBX 24 22 2 -1
BITMAP
00F800
007C00
007800
007800
00F800
00F000
01E000
03C000
078000
0F0000
1E0000
3DE000
7FF000
79F000
F9F000
F9F1FE
F9F7CF
F9FF8F
FF078F
70079F
0007FE
0003C0
ENDCHAR
STARTCHAR char165
ENCODING 333
SWIDTH 3154 0
DWIDTH 92 0
BBX 21 20 1 1
BITMAP
01FFE0
0F83E0
1E03E0
3C01E0
7C00F0
780000
FFE000
F9F000
F8F000
F8F000
F8F000
7FFFF0
1FF1F0
01F1F0
01F0F0
01F078
01E000
01E000
01E000
01F000
ENDCHAR
STARTCHAR char166
ENCODING 334
SWIDTH 3291 0
DWIDTH 96 0
BBX 21 20 2 1
BITMAP
001FC0
07FDE0
0E7DE0
1C7DE0
3C7DE0
383FC0
780000
780000
780000
780000
F80000
FFE000
FBE000
F9F000
F9F000
F9E0F0
F9EFE0
FBFFF0
7E01F0
7000F8
ENDCHAR
STARTCHAR char335
ENCODING 335
SWIDTH 3428 0
DWIDTH 100 0
BBX 22 28 2 -3
BITMAP
007800
00F800
007800
00F800
01F000
03E000
07C000
0F8000
1F0000
3FF000
3FF800
7CF800
7CF800
7CF9F8
3FFFF8
0EF8F8
00F8F8
00F87C
00F800
00F800
00F800
00F800
00FFF0
FFFDF0
F801F0
F801F0
F00000
E00000
ENDCHAR
STARTCHAR char232
ENCODING 336
SWIDTH 3154 0
DWIDTH 92 0
BBX 23 19 0 1
BITMAP
0003FC
7FFFFC
7C787C
7C787C
78783E
F07800
007800
00F800
00F800
00F800
00F000
00F000
00F000
00F000
00F000
01F000
01F000
01F000
01F000
ENDCHAR
STARTCHAR char233
ENCODING 337
SWIDTH 3154 0
DWIDTH 92 0
BBX 23 19 0 1
BITMAP
0003FC
7FFFFC
7C787C
7C787C
78783E
F07800
007800
00F800
00F800
00F870
00F1F0
00FFF0
00F1F0
00F0F8
01F000
01F000
01F000
01F000
01F000
ENDCHAR
STARTCHAR char234
ENCODING 338
SWIDTH 3154 0
DWIDTH 92 0
BBX 23 21 0 -1
BITMAP
0003FC
7FFFFC
7C787C
7C787C
78783E
F07800
007800
00F800
00F800
00F800
00F000
00F000
00F000
00F000
00F000
01F000
01F0F8
01F7F0
01FFF0
0000F8
000070
ENDCHAR
STARTCHAR char235
ENCODING 339
SWIDTH 3977 0
DWIDTH 116 0
BBX 27 21 2 -1
BITMAP
00003FC0
0FFFFFC0
07C787C0
078787C0
078783E0
0F078000
000F8000
000F8000
000F0000
000F0000
000F0000
000F0000
001F0000
001E0000
003C0000
00F00000
FF000000
F8000000
F8000000
F0000000
E0000000
ENDCHAR
STARTCHAR char236
ENCODING 340
SWIDTH 3154 0
DWIDTH 92 0
BBX 23 19 0 1
BITMAP
0003FC
7FFFFC
7C787C
7C787C
78783E
F07800
007800
00F800
00F800
00F800
00F000
00F000
00FFC0
00F3C0
00F3E0
01F3E0
01F3C0
01FFC0
00FF00
ENDCHAR
STARTCHAR char237
ENCODING 341
SWIDTH 3154 0
DWIDTH 92 0
BBX 23 19 0 1
BITMAP
0003FC
7FFFFC
7C787C
7C787C
78781E
F07800
007800
009E00
001E00
001E00
001E00
003E00
003E00
003C00
003C00
003C00
003C00
003C00
003E00
ENDCHAR
STARTCHAR char238
ENCODING 342
SWIDTH 3977 0
DWIDTH 116 0
BBX 27 20 2 1
BITMAP
00003FC0
07FFFFC0
07C7C7C0
07C7C7C0
078783E0
0F0F8000
000F0000
001F0000
003E0000
007C0000
00F80000
03F00000
07C00000
1F800000
3F000000
7C000000
FC000000
F8000000
F8000000
FC000000
ENDCHAR
STARTCHAR char343
ENCODING 343
SWIDTH 3428 0
DWIDTH 100 0
BBX 23 24 2 -3
BITMAP
0003FC
FFFFFC
F8787C
F8787C
F8F83E
F0F800
00F800
00F000
00F000
00F000
00F000
01F000
01F000
01F000
01E000
01E000
01E000
01E080
3FFF80
7C07C0
FC07C0
F803C0
F000A0
C00000
ENDCHAR
STARTCHAR char26
ENCODING 344
SWIDTH 4525 0
DWIDTH 132 0
BBX 31 23 1 -1
BITMAP
00000F00
01FFFF80
1FF3EF80
3CF3C780
7DF3C780
79F3CF80
F9E3EF80
F9E3FF80
F9E18F80
FBE01F00
FF801F00
70001F00
00003E00
00003E00
00003E00
00007C00
00007C00
00007C0A
00007C7C
00007FFC
00007FFC
0000007C
0000003E
ENDCHAR
STARTCHAR char42
ENCODING 345
SWIDTH 2605 0
DWIDTH 76 0
BBX 16 20 2 1
BITMAP
001E
007E
003E
003C
007C
00F8
01F0
03E0
07C0
0F80
1F00
3E00
7C0F
7C1F
F81F
F81F
F81E
FC7C
7FE0
3E00
ENDCHAR
STARTCHAR char162
ENCODING 346
SWIDTH 3154 0
DWIDTH 92 0
BBX 20 20 2 1
BITMAP
003800
00FC00
007C00
007800
00F800
00F000
01E000
03C000
078000
0F0000
1E0000
3FE000
7FF1F0
78F1F0
F8F1F0
F8F1F0
F9F1E0
FFFFC0
7C0000
700000
ENDCHAR
STARTCHAR char353
ENCODING 353
SWIDTH 2605 0
DWIDTH 76 0
BBX 5 14 6 4
BITMAP
38
F8
78
78
78
80
00
00
18
F0
F0
F0
F8
E0
ENDCHAR
STARTCHAR char354
ENCODING 354
SWIDTH 2605 0
DWIDTH 76 0
BBX 12 14 3 4
BITMAP
0070
01F0
F8F0
78F0
79F0
7900
6010
00E0
09E0
F1E0
F1E0
F9F0
F800
E000
ENDCHAR
STARTCHAR char353
ENCODING 355
SWIDTH 2742 0
DWIDTH 80 0
BBX 7 17 5 4
BITMAP
06
78
80
00
0C
7C
3C
3C
3C
40
00
04
78
78
78
7C
70
ENDCHAR
STARTCHAR char354
ENCODING 356
SWIDTH 2742 0
DWIDTH 80 0
BBX 7 20 5 2
BITMAP
06
7C
80
00
3C
7C
3C
3C
78
00
00
38
78
78
78
7C
00
02
7C
C0
ENDCHAR
STARTCHAR char355
ENCODING 357
SWIDTH 2742 0
DWIDTH 80 0
BBX 11 16 3 4
BITMAP
0600
1E00
1E00
1E00
1E00
1000
0060
0780
7800
8000
0300
1E00
1E00
1E00
1F00
0C00
ENDCHAR
STARTCHAR char358
ENCODING 358
SWIDTH 3702 0
DWIDTH 108 0
BBX 20 14 3 4
BITMAP
180000
F80000
780000
780000
780000
407FF0
007FF0
007FF0
080000
F80000
F00000
F80000
F80000
E00000
ENDCHAR
STARTCHAR char356
ENCODING 359
SWIDTH 3360 0
DWIDTH 98 0
BBX 19 21 4 1
BITMAP
003000
01F000
00F000
38F0E0
F8F3E0
7881E0
7801E0
7801E0
C0F200
00F000
01F000
09F060
F0E3C0
F003C0
F003C0
F813E0
E1F380
00F000
00F000
00F000
00C000
ENDCHAR
STARTCHAR char356
ENCODING 360
SWIDTH 2468 0
DWIDTH 72 0
BBX 5 21 5 1
BITMAP
18
F8
78
78
78
40
00
00
78
78
F8
F8
70
00
00
08
F8
78
78
78
60
ENDCHAR
STARTCHAR char384
ENCODING 361
SWIDTH 2331 0
DWIDTH 68 0
BBX 15 26 2 -4
BITMAP
007C
3FFC
3C1E
3800
0000
0F80
0F80
0F80
0F80
1F00
1FE0
3EF0
7EF8
7C78
FC7C
F87C
F078
F078
F0F8
FFF0
7F00
0000
01F0
FFF0
F0F0
E000
ENDCHAR
STARTCHAR char385
ENCODING 362
SWIDTH 2057 0
DWIDTH 60 0
BBX 12 26 2 -4
BITMAP
07E0
FEE0
F0F0
C000
0000
1FC0
79E0
F1E0
F1E0
F1E0
F3C0
F7C0
FF00
F000
F000
F7C0
FFE0
F1E0
79E0
39C0
1F00
0000
0070
FFF0
F0F0
F060
ENDCHAR
STARTCHAR char386
ENCODING 363
SWIDTH 2194 0
DWIDTH 64 0
BBX 14 25 1 -4
BITMAP
03F8
3FF8
383C
7000
0000
3FFC
7C7C
7C7C
7C3C
7C08
7C00
7C00
7C00
7800
7800
7800
7800
7800
7800
7C00
0000
01E0
7FE0
78F0
F060
ENDCHAR
STARTCHAR char387
ENCODING 364
SWIDTH 1782 0
DWIDTH 52 0
BBX 12 25 1 -4
BITMAP
0FE0
F0E0
F0F0
E000
0000
0F00
39C0
79E0
79E0
F9E0
F1E0
F1E0
F1E0
F1E0
F1E0
F3C0
73C0
3700
0C00
0000
0000
0FE0
F1E0
F0F0
E000
ENDCHAR
STARTCHAR char388
ENCODING 365
SWIDTH 2605 0
DWIDTH 76 0
BBX 17 26 1 -5
BITMAP
03FC00
3FBC00
3C1C00
300000
07C000
03C000
03C000
03C000
078600
07FF00
0F0F00
1F0F80
3E0300
3C0000
7C0000
780000
F81E00
783E00
7DFE00
3FBE00
000000
000800
3FF800
3C3C00
381C00
100000
ENDCHAR
STARTCHAR char389
ENCODING 366
SWIDTH 2331 0
DWIDTH 68 0
BBX 15 26 1 -4
BITMAP
03F8
7FF8
783C
7000
0000
73C0
FFE0
79E0
73E0
E3E0
03C0
07C0
07C0
0780
0FB8
0FFC
1F3E
1F3E
1E7C
1FFC
0FC0
0000
00F8
3FF8
383C
7808
ENDCHAR
STARTCHAR char390
ENCODING 367
SWIDTH 2468 0
DWIDTH 72 0
BBX 16 26 1 -5
BITMAP
03F8
3FBC
3C3C
3800
00C0
1FF0
79F0
78F0
71F0
E1E0
01E0
03E0
03C0
07C0
0780
0780
0F9E
0FFE
0F9E
000F
0000
0038
3FF8
3C3C
3818
2000
ENDCHAR
STARTCHAR char391
ENCODING 368
SWIDTH 3017 0
DWIDTH 88 0
BBX 19 26 2 -4
BITMAP
01FF00
0FEF00
0F0780
0C0000
000000
07FFE0
7FF3C0
79F3C0
79F1E0
E1F000
01F000
01E000
01E000
01E000
01E000
01E000
01EF80
FFFF80
F80780
F00780
E003C0
000000
0FFC00
3F3C00
3C1E00
300000
ENDCHAR
STARTCHAR char392
ENCODING 369
SWIDTH 2194 0
DWIDTH 64 0
BBX 14 26 1 -5
BITMAP
01F8
7FF8
7838
7000
0000
007C
7C3C
7C3C
3C3C
3CFC
7FBC
7C3C
7C3C
7C7C
7878
7878
7878
78F0
7DE0
3F80
0000
0000
7FF0
7070
7078
E000
ENDCHAR
STARTCHAR char393
ENCODING 370
SWIDTH 2057 0
DWIDTH 60 0
BBX 13 26 1 -5
BITMAP
01F8
7FF8
7878
F000
0000
0FC0
07C0
07C0
0780
0780
0780
0780
0F80
0F80
0F80
0F80
0F00
0F80
0400
0000
0000
0000
3FF0
7878
7078
E000
ENDCHAR
STARTCHAR char394
ENCODING 371
SWIDTH 2880 0
DWIDTH 84 0
BBX 19 25 1 -4
BITMAP
007E00
0FFE00
0E0F00
1C0000
007FE0
7FF3E0
78F1E0
71F0E0
E1E000
03C000
07C000
078800
0FFC00
1E3E00
1E1E00
3C1E00
3C1E00
7C1E00
7C1F00
3E1E00
000000
000C00
3FFC00
1C1E00
3C0C00
ENDCHAR
STARTCHAR char395
ENCODING 372
SWIDTH 3017 0
DWIDTH 88 0
BBX 19 25 2 -5
BITMAP
003F80
0FF780
0F03C0
0E0000
000000
001F80
00F3C0
38F1E0
71F3E0
F1F3E0
F1E3E0
F1E3E0
F1E3E0
F1E3C0
F1E3C0
F3E3C0
7FC3C0
3803E0
000000
000000
000000
1FFF00
1E0700
1E0380
180000
ENDCHAR
STARTCHAR char396
ENCODING 373
SWIDTH 2880 0
DWIDTH 84 0
BBX 19 26 1 -4
BITMAP
001F80
1FFF80
1E0780
1C0000
000000
0033E0
F9F3E0
78F1E0
79FBE0
79FFE0
F9F7C0
F9E3C0
FBC3C0
7F07C0
100780
000780
000780
000780
000F80
000F80
000F80
000000
001E00
7FFE00
381E00
780400
ENDCHAR
STARTCHAR char397
ENCODING 374
SWIDTH 2194 0
DWIDTH 64 0
BBX 14 25 1 -4
BITMAP
01F8
3FF8
3C3C
7800
001C
7C7C
3C3C
3C7C
3C78
3C78
3E78
3FF8
00F0
00F0
01F0
01E0
01E0
01E0
01E0
01F0
0000
0070
7FF0
7878
7020
ENDCHAR
STARTCHAR char398
ENCODING 375
SWIDTH 3017 0
DWIDTH 88 0
BBX 19 26 2 -4
BITMAP
007E00
1FFE00
1E0F00
1C0000
0001E0
07FFE0
FFE3E0
F1E1E0
E3E000
C3F000
00F000
01F000
01E000
01E000
01E000
03EF80
3FFF00
F00F80
F00780
E00000
C00000
000000
03FE00
1F1E00
1C1E00
180000
ENDCHAR
STARTCHAR char399
ENCODING 376
SWIDTH 3017 0
DWIDTH 88 0
BBX 19 26 2 -4
BITMAP
003E00
0FFE00
0E0F00
1E0000
000000
001FC0
07F9E0
0E79E0
3C79E0
3C79E0
787FC0
787800
F80000
F80000
F00000
F00000
F03C00
F07C00
F87C00
FFFE00
7C7800
000000
003C00
1FFC00
1C1E00
3C0000
ENDCHAR
STARTCHAR char400
ENCODING 377
SWIDTH 3840 0
DWIDTH 112 0
BBX 26 26 1 -4
BITMAP
0001F000
01FFF000
01C07800
01C00000
02000000
00001F80
007FFFC0
7FF3C7C0
78F3C3C0
78F3C000
70F3C000
E0F3C000
00F3C000
00F3C000
01E78000
01E78000
01E78000
01E78000
01E78000
01E7C000
01F00000
00000000
0003F000
03FFF000
01C07800
03800000
ENDCHAR
STARTCHAR char401
ENCODING 378
SWIDTH 2194 0
DWIDTH 64 0
BBX 14 26 1 -4
BITMAP
00F8
3FFC
3C3C
3800
0060
1FF8
79F8
78F0
79F0
71F0
81E4
0078
0078
00F8
00F0
01F0
01F0
01E0
03E0
03F0
03C0
0000
0038
3FFC
3C3C
3800
ENDCHAR
STARTCHAR char402
ENCODING 379
SWIDTH 2057 0
DWIDTH 60 0
BBX 14 25 1 -4
BITMAP
03F8
3F78
383C
7000
07E0
1CF0
3CF8
3CF0
3CF0
3CF0
3DE0
3F00
3E00
1F00
1F00
1F00
1F00
1F00
1F00
0F80
0000
0070
FFF0
7078
F000
ENDCHAR
STARTCHAR char403
ENCODING 380
SWIDTH 3154 0
DWIDTH 92 0
BBX 20 25 2 -4
BITMAP
1FFF80
1E0780
3C0780
000000
0F03E0
3F8EF0
F39C70
F3BC70
F3BC70
F73CE0
F63FC0
FC1F00
F07E00
FFDE00
F81E00
F81E00
F81E00
781F00
781F00
781C00
000000
000000
3FFE00
381E00
700E00
ENDCHAR
STARTCHAR char416
ENCODING 384
SWIDTH 3154 0
DWIDTH 92 0
BBX 20 27 2 1
BITMAP
1003C0
0F0780
078F80
03DE00
01F800
01F800
00F800
007800
007800
00F800
00FFC0
01FFF0
1FF9F0
78F9F0
F8F1F0
F8F1E0
F9F3C0
FDFF00
7FF000
01F000
01F000
01E000
01E000
01E000
03E000
03F000
01F800
ENDCHAR
STARTCHAR char417
ENCODING 385
SWIDTH 3017 0
DWIDTH 88 0
BBX 19 27 2 1
BITMAP
1007C0
0F0F80
0F0F00
039E00
01F800
01F800
00F800
00F800
00F800
00F800
00F780
0FFFC0
3CF3E0
79F3E0
F1F3E0
F1F3E0
F1E7C0
F9FF00
FFF000
03E0E0
03E7C0
03FFC0
03C7C0
03C7E0
03C180
07C000
03E000
ENDCHAR
STARTCHAR char418
ENCODING 386
SWIDTH 3154 0
DWIDTH 92 0
BBX 20 29 2 -1
BITMAP
1003C0
0F0780
078F80
03DE00
00F800
01F800
00F800
00F800
00F800
00F800
00FFC0
01FFF0
1FF9F0
78F9F0
F8F1F0
F8F1E0
F9F3C0
FDFF00
7FF000
01F000
01F000
01E000
01E000
01E060
03E1E0
03F7E0
01FFE0
0003F0
0001E0
ENDCHAR
STARTCHAR char419
ENCODING 387
SWIDTH 3565 0
DWIDTH 104 0
BBX 23 28 2 -1
BITMAP
020078
01E0F0
00F1E0
0079C0
003F00
001F00
001F00
000F00
000F00
000F00
000FFC
01FF3E
078F1E
0F8F1E
0F0F1E
0F0F3C
0F9FF0
07FF00
000F00
001F00
001E00
007C00
03E000
FE0000
F80000
F80000
F00000
E00000
ENDCHAR
STARTCHAR char420
ENCODING 388
SWIDTH 3017 0
DWIDTH 88 0
BBX 19 26 2 1
BITMAP
1007C0
1F0F80
0F0F00
079C00
01F000
01F800
00F800
00F800
00F800
00F800
00FFC0
1FF7E0
79F3E0
F1F3E0
F1F3E0
F1E3C0
F9E780
FFFC00
3BE000
03E000
03FF80
03C780
03C780
03C780
07CF00
03F800
ENDCHAR
STARTCHAR char421
ENCODING 389
SWIDTH 3154 0
DWIDTH 92 0
BBX 21 31 1 -2
BITMAP
803E00
787C00
787800
3CF000
0FC000
078000
0FC000
07C000
07C000
0FFC00
003E00
003E00
003E00
003C00
003FF0
07FFF8
1E7CF8
3C7CF8
3C7CF8
7C78F8
7C79F0
7E7FC0
3FF800
00F800
00F800
00F000
00F000
00F000
01F000
01F000
00F800
ENDCHAR
STARTCHAR char422
ENCODING 390
SWIDTH 3017 0
DWIDTH 88 0
BBX 20 26 2 1
BITMAP
0E03F0
0783C0
03C780
01EF00
007C00
00FE00
01CF00
038F00
07CF00
03CE00
03FC00
03F800
01F380
03FFE0
1FF3E0
79F3E0
F1F3E0
F1F3C0
F1F380
FFFE00
FFE000
01E000
01E000
03E000
03E000
01F000
ENDCHAR
STARTCHAR char424
ENCODING 392
SWIDTH 3017 0
DWIDTH 88 0
BBX 21 23 1 1
BITMAP
39E0F8
F8E0F0
78E0E0
7871E0
F831C0
F81F00
F9FC00
FF3E00
0E1E00
1C1E00
3C1E00
3C1E00
3C1E00
7C1E00
7C1E00
7C1E00
7C1E00
7C1E00
7C1E00
7C1E00
7C1E00
7C1F00
3E1F00
ENDCHAR
STARTCHAR char425
ENCODING 393
SWIDTH 3428 0
DWIDTH 100 0
BBX 24 23 1 1
BITMAP
39C0F0
F8E0F0
78E0E0
F861C0
F83380
F81F00
F9FC00
FF3C00
1E1E00
1C1E00
3C1E00
3C1E1E
3C1E3E
7C1FFE
7C1E3E
7C1E3F
7C1E00
7C1E00
7C1E00
7C1E00
7C1E00
7C1E00
3C1F00
ENDCHAR
STARTCHAR char426
ENCODING 394
SWIDTH 3565 0
DWIDTH 104 0
BBX 24 25 1 -1
BITMAP
39C0F0
F8E0F0
78E0E0
F861C0
F83380
F81F00
F9FC00
FF3C00
1E1E00
1C1E00
3C1E00
3C1E00
3C1E00
7C1E00
7C1E00
7C1E00
7C1E00
7C1E00
7C1E00
7C1E1E
7C1E3E
7C1FFE
3C1F3E
00003F
00001E
ENDCHAR
STARTCHAR char427
ENCODING 395
SWIDTH 3017 0
DWIDTH 88 0
BBX 21 23 1 1
BITMAP
39E0F8
F8E0F0
78E0E0
7871E0
F831C0
F81F00
F9FC00
FF3E00
1E1E00
1C1E00
3C1E00
3C1E00
3C1E00
3C1E00
3C1E00
3C1E00
3E1E00
201E00
001E00
001E00
001E00
001F00
001F00
ENDCHAR
STARTCHAR char428
ENCODING 396
SWIDTH 3428 0
DWIDTH 100 0
BBX 23 23 1 1
BITMAP
39C0F0
F8E0F0
78E0E0
F861C0
F87380
F81F00
F9F800
FF3C00
1E1E00
1C1E00
3C1E00
3C1E00
3C1E00
7C1E00
7C1E00
7C1E00
7C1FFC
781F7E
781E3E
7C1E3E
7C1E3C
7C1FF8
3C1F00
ENDCHAR
STARTCHAR char429
ENCODING 397
SWIDTH 3154 0
DWIDTH 92 0
BBX 22 23 1 1
BITMAP
380004
F8F878
787878
783870
781CE0
780F80
78FE00
7F8F80
6F0780
1E0780
3E0780
3C0780
7F0780
0F0780
1E0780
1E0F80
3E0F80
3E0F80
3C0F00
7C0F00
7C0F00
7C1F00
7C0F80
ENDCHAR
STARTCHAR char430
ENCODING 398
SWIDTH 2880 0
DWIDTH 84 0
BBX 20 23 1 1
BITMAP
3800F0
F9E0E0
78E1C0
7871C0
783B80
781E00
7BF800
FE3C00
4E1E00
1C1E00
1C1E00
3C1E00
3C1E00
3C1E00
3C1E00
3C1F00
3C1F00
3C0000
3C0000
3C0000
3C0000
3E0000
1C0000
ENDCHAR
STARTCHAR char432
ENCODING 400
SWIDTH 3291 0
DWIDTH 96 0
BBX 23 28 0 1
BITMAP
000780
0E0F00
0F0E00
070E78
039DF0
FCD1F0
7CFFF8
7FF8F8
7CF800
78F800
00F800
00FBFC
00FF3C
005E1E
001E1E
003E3E
003C3E
003C3E
007C3E
007C3E
007C3C
007C3C
007C3C
007C3C
007C3C
007C3C
007C3C
00783C
ENDCHAR
STARTCHAR char433
ENCODING 401
SWIDTH 4251 0
DWIDTH 124 0
BBX 30 28 0 1
BITMAP
00070000
0E0F0000
0F0E0000
070CF000
0399F000
FDD1F000
7CFFF000
7FF9F800
7CF80000
78F80000
00F80000
00FBF800
00FF3C00
005E3C00
001E3C00
003C3C00
003C3CF8
007C3FF8
007C3C7C
007C3C3C
00783C00
00783C00
00783C00
00783C00
00787C00
00787C00
007C7C00
00783C00
ENDCHAR
STARTCHAR char434
ENCODING 402
SWIDTH 4251 0
DWIDTH 124 0
BBX 30 30 0 -1
BITMAP
00070000
0E0F0000
0F0E0000
070CF000
0399F000
FDF1F000
7CFFF000
7FF9F800
7CF80000
78F80000
00F80000
00FBF800
00FF3C00
005E3C00
001E3C00
003C3C00
003C3C00
007C3C00
007C3C00
007C3C00
00783C00
00783C00
00783C00
00787C00
00787C18
00787C78
007C7FF8
00783FF8
0000007C
00000038
ENDCHAR
STARTCHAR char435
ENCODING 403
SWIDTH 3291 0
DWIDTH 96 0
BBX 23 28 0 1
BITMAP
000780
0E0F00
0F0E00
070E78
039DF0
FCD1F0
7CFFF8
7FF9F8
7CF800
78F800
00F800
00FBFC
00FF3C
004E1E
001E1E
003E3E
003C3E
003C3E
007C3E
007C3C
007C3C
007E3C
00003C
00003C
00003C
00003C
00003C
00003C
ENDCHAR
STARTCHAR char436
ENCODING 404
SWIDTH 4114 0
DWIDTH 120 0
BBX 29 28 0 1
BITMAP
00078000
0E0F0000
0F0E0000
070E7800
039DF000
FCD1F000
7CFFF800
7FF9F800
7CF80000
78F80000
00F80000
00FBFC00
00FF3C00
005E1E00
001E3E00
003E3E00
003C3E00
007C3E00
007C3C00
007C3C00
007C3C00
007C3C00
007C3FF0
007C3CF8
007C3CF8
007C3CF8
007C3CF0
00783FC0
ENDCHAR
STARTCHAR char437
ENCODING 405
SWIDTH 3565 0
DWIDTH 104 0
BBX 25 28 0 1
BITMAP
00038000
09070000
070F0000
078E0000
038CF800
FCF9F800
7CFFF800
7FF8F800
7C780000
78780000
80F80000
00F8FE00
00FF9F00
00FF0F00
001E0F80
003C0F80
003C0F80
007F0F80
001E0F80
001E0F00
003E0F00
003C0F00
003C0F00
007C1F00
007C1F00
00781F00
007C1F00
00781E00
ENDCHAR
STARTCHAR char438
ENCODING 406
SWIDTH 3291 0
DWIDTH 96 0
BBX 23 28 0 1
BITMAP
000780
0E0F00
0F0E00
070CF0
039DF0
FDD1F0
7CFFF0
7FF9F8
7CF800
78F800
00F800
00FBF8
00FF3C
005E3C
001E3C
003C3E
003C3C
007C3C
007C3C
007C3C
007C3C
007C3E
007C00
007800
007800
007C00
007C00
007800
ENDCHAR
STARTCHAR char440
ENCODING 408
SWIDTH 2194 0
DWIDTH 64 0
BBX 16 24 0 1
BITMAP
C00F
781E
7C3C
3C38
1E70
0FE0
01F8
0FFC
3E3E
1E3E
1E3E
3C3E
003C
003C
007C
007C
007C
0078
0078
00F8
00F8
00F0
00F8
00F0
ENDCHAR
STARTCHAR char441
ENCODING 409
SWIDTH 3154 0
DWIDTH 92 0
BBX 21 23 1 1
BITMAP
F83E00
7C3E00
3C3C00
1E7800
0FE000
01E000
7FF800
7C7800
7C7C00
787C00
F07C00
007800
00FFF8
00F8F8
00F0F8
01F0F8
01F078
01E000
03E000
03E000
03C000
03C000
03E000
ENDCHAR
STARTCHAR char442
ENCODING 410
SWIDTH 3291 0
DWIDTH 96 0
BBX 23 24 0 -1
BITMAP
F83E00
7C3E00
3C3C00
1E7800
0FE000
01FC00
0FFE00
0F1F00
1F1F00
1E1F00
381F00
001E00
001E00
003E00
003E00
003C00
003C00
007C00
00780C
00787C
0079FC
007FFC
00007E
000038
ENDCHAR
STARTCHAR char443
ENCODING 411
SWIDTH 3017 0
DWIDTH 88 0
BBX 19 26 2 -1
BITMAP
1F03E0
0F87C0
0F87C0
078780
03CE00
00FC00
007FC0
03E7E0
03E3E0
03E3E0
03C3E0
0203E0
0003E0
0003E0
0003E0
0003C0
0007C0
000F80
000F00
003E00
7FF800
FC0000
FC0000
F80000
F80000
F00000
ENDCHAR
STARTCHAR char444
ENCODING 412
SWIDTH 2742 0
DWIDTH 80 0
BBX 19 25 0 1
BITMAP
000100
FC1F00
7C1E00
3E3C00
1F7800
03E000
03F800
1EFC00
3E3C00
3E3C00
3C3C00
383C00
007C00
007C00
007C00
007800
00F800
00F800
00F880
00FFC0
01F3E0
01F3E0
01F3C0
01FF80
01FE00
ENDCHAR
STARTCHAR char445
ENCODING 413
SWIDTH 2880 0
DWIDTH 84 0
BBX 20 24 1 1
BITMAP
0E03F0
07C3C0
03C380
01E700
00FE00
001F00
03FFC0
3FE3C0
79F3E0
F9F3E0
F9E3C0
F9E3C0
7FC7C0
3807C0
0007C0
000780
000F80
000F80
000F00
000F00
001F00
001F00
001F00
001E00
ENDCHAR
STARTCHAR char446
ENCODING 414
SWIDTH 2331 0
DWIDTH 68 0
BBX 15 27 1 1
BITMAP
F03E
783C
3C38
1E70
0FC0
01C0
07C0
03C0
03E0
03E0
03E0
0FFE
7C3E
7C3E
783E
707C
807C
00FC
00F8
00F8
01F0
01F0
03F0
03E0
03E0
03E0
03E0
ENDCHAR
STARTCHAR char457
ENCODING 416
SWIDTH 5485 0
DWIDTH 160 0
BBX 38 14 1 6
BITMAP
00000DE000
007FFFF018
07FF7DF0FC
0F1E78FFBC
1E3E78FB9C
3E3E78F39C
7C3C78F3F8
7C7CF9F3C0
F87CF9F000
F8F8FFE000
F8F8FF0000
FDF0000000
FFE0000000
7800000000
ENDCHAR
STARTCHAR char458
ENCODING 418
SWIDTH 5211 0
DWIDTH 152 0
BBX 36 21 1 1
BITMAP
00000F0000
01FFFF8000
1FF3EF8000
3CF3C7C000
7CF3C78000
79F3C78000
F9E3EF8000
F9E3FFBC00
F9E18FFC00
FBE00F3C00
FF801F3C00
70001F3C20
00001E3FE0
00003E03E0
00003E03E0
00003C01E0
00007C01F0
00007C0000
00007C0000
00007C0000
00003C0000
ENDCHAR
STARTCHAR char459
ENCODING 420
SWIDTH 4251 0
DWIDTH 124 0
BBX 29 27 1 -4
BITMAP
00000F00
01FFFF80
0FF3EFC0
3CF3C7C0
7CF3C7C0
79F3C780
F9F3EF80
F9E3FF80
F9E1CF80
FBE00F00
FF801F00
70001F00
00001E00
00003E00
00003E60
00003FF8
00007CF8
00007CF8
000078F8
00007DF8
00007FE0
0007C000
003E0000
003E0000
003C0000
00780000
00700000
ENDCHAR
STARTCHAR char460
ENCODING 421
SWIDTH 5622 0
DWIDTH 164 0
BBX 39 14 1 6
BITMAP
00000DE000
007FFFF000
07FF7DF3C0
0F1E78FBC0
1E3E78FBC0
3E3E78F3C0
7C3C78FFC0
7C7CF9F3FE
F87CF9F03E
F8F8FFE03E
F8F8FF001E
FDF000000C
FFE0000000
7800000000
ENDCHAR
STARTCHAR char464
ENCODING 424
SWIDTH 3702 0
DWIDTH 108 0
BBX 24 21 2 1
BITMAP
07F000
1C7800
383C00
783C00
783C00
703C00
F03C3E
F03CFF
F03FE7
F03DE7
F03DEF
F03DFE
F03CC0
F03C00
F03C00
F03C00
F07C00
F07C00
F07C00
F07C00
783E00
ENDCHAR
STARTCHAR char465
ENCODING 426
SWIDTH 3977 0
DWIDTH 116 0
BBX 26 21 2 1
BITMAP
07F00000
1C780000
383C0000
783C7800
783CF000
703DF000
F03FF000
F03CF000
F03CF000
F03CF780
F03CFF80
F03CC780
F03C0780
F03C03C0
F03C0000
F03C0000
F07C0000
F07C0000
F07C0000
F87C0000
783E0000
ENDCHAR
STARTCHAR char466
ENCODING 428
SWIDTH 3291 0
DWIDTH 96 0
BBX 21 26 2 -4
BITMAP
07E000
18F000
38F800
707800
707800
707800
F07800
F07800
F07800
F07800
F07800
F07800
F07800
F07800
F07FF0
F079F8
F078F8
F878F0
6078F0
007FC0
03E000
1E0000
1E0000
1E0000
3C0000
300000
ENDCHAR
STARTCHAR char467
ENCODING 429
SWIDTH 3977 0
DWIDTH 116 0
BBX 26 21 2 1
BITMAP
07F00000
1C780000
383C0000
783C0000
783C0000
703CF800
F03CF800
F03CF800
F03CF800
F03FFF80
F03C0780
F03C0780
F03C07C0
F03C03C0
F03C0000
F03C0000
F07C0000
F07C0000
F07C0000
F87C0000
783E0000
ENDCHAR
STARTCHAR char448
ENCODING 432
SWIDTH 3428 0
DWIDTH 100 0
BBX 22 20 2 1
BITMAP
007800
00F800
007800
00F800
00F1FC
01FF9C
03FB1C
07C71C
078718
0F03F0
1E0100
3DC000
7FF000
F9F000
F1F000
F1F1E0
F1FFE0
FBFFE0
FE03F0
7001E0
ENDCHAR
STARTCHAR char449
ENCODING 434
SWIDTH 3702 0
DWIDTH 108 0
BBX 24 20 2 1
BITMAP
00F8F0
00F9E0
00FFE0
00FFE0
00F1E0
01F1E0
03E3E0
07C1FF
0F801E
1F001E
3E001F
3DC00F
7FE007
F9F000
F1F000
F1E1E0
F1FFE0
FBFFE0
FE03E0
7001F0
ENDCHAR
STARTCHAR char450
ENCODING 436
SWIDTH 3702 0
DWIDTH 108 0
BBX 24 25 2 -2
BITMAP
007C00
003E00
003C00
007C00
007C00
00F800
01F000
03E000
07C000
0F0000
1E0000
3FE000
7FF000
F9F000
F9F000
F9F0F0
F9E7FE
FFFF9F
F9EF9F
070F9F
3E0FBE
3E07F8
3C0000
380000
300000
ENDCHAR
STARTCHAR char451
ENCODING 437
SWIDTH 3702 0
DWIDTH 108 0
BBX 24 20 2 1
BITMAP
00F800
00FBE0
00FBE0
00FBE0
00F3E0
01F3E0
03FFFF
07C01F
0F801F
1F000F
3E0007
3FC000
7FE000
F9F000
F1F000
F1E3E0
F1FFE0
FBFFE0
FE03E0
7001F0
ENDCHAR
STARTCHAR char453
ENCODING 440
SWIDTH 3428 0
DWIDTH 100 0
BBX 24 19 0 1
BITMAP
0001FC
7FFFFC
7C7C3C
78783E
78781C
F07800
007800
00F800
00F8FF
00FFEF
00F1C7
00F3CF
00F1FE
00F1E0
01F000
01F000
01F000
01F000
01F800
ENDCHAR
STARTCHAR char454
ENCODING 442
SWIDTH 3565 0
DWIDTH 104 0
BBX 25 19 0 1
BITMAP
0003FE00
7FFFFE00
7C7C3E00
7C7C3E00
78781E00
F0780000
00787000
0079F000
00F9F000
00FFF000
00F9F000
00F1E000
00F1E700
00F1FF00
00F00F00
01F00F00
01F00F00
01F00380
01F80000
ENDCHAR
STARTCHAR char455
ENCODING 444
SWIDTH 3428 0
DWIDTH 100 0
BBX 23 26 2 -3
BITMAP
0003FC
FFFFFC
FC787C
78787C
F8F83E
F0F800
00F800
00F800
00F000
00F000
00F000
00F000
01FF80
01F7C0
01F3C0
01E3C0
01E3C0
01F7C0
03FF80
1F0000
F80000
F80000
F80000
F00000
E00000
C00000
ENDCHAR
STARTCHAR char456
ENCODING 445
SWIDTH 3702 0
DWIDTH 108 0
BBX 26 19 0 1
BITMAP
0000FC00
07FFFC00
7E787C00
7C783C00
78781E00
78780000
E0780000
00F8F000
00F8F000
00F8F900
00F8FF00
00FF8F80
00F00F80
00F007C0
00F00100
00F00000
01F00000
01F00000
00F80000
ENDCHAR
STARTCHAR char490
ENCODING 448
SWIDTH 4011 0
DWIDTH 117 0
BBX 25 25 1 1
BITMAP
00000780
00001F00
07E0FF00
03FFDF80
03E78F80
03C78000
07878000
00078000
001DE000
0038F000
0070F000
0070F000
00F0F000
03F0F000
7FF0F000
7DE0F000
79E1F000
79E1F000
F1E1F000
01E1F000
01E1F000
01E1F000
01E1F000
01F1F000
00F00000
ENDCHAR
STARTCHAR char490
ENCODING 449
SWIDTH 4114 0
DWIDTH 120 0
BBX 28 25 1 1
BITMAP
00000780
00001F00
07E0FF00
03FFDF80
03E78F80
03C78000
07878000
00078000
001DE000
0038F000
0070F000
0070F070
00F0F1E0
03F0FFE0
7FF0FBE0
7DE0F1F0
79E1F000
79E1F000
F1E1F000
01E1F000
01E1F000
01E1F000
01E1F000
01F1F000
00F00000
ENDCHAR
STARTCHAR char491
ENCODING 450
SWIDTH 4114 0
DWIDTH 120 0
BBX 28 27 1 -1
BITMAP
00000780
00000F00
07E0FF00
03FF9F80
03E78F80
03C78000
07878000
00078000
001DE000
0038F000
0070F000
0070F000
00F0F000
03E0F000
7FE0F000
7DE0F000
79E0F000
79E0F000
F1E0F000
01E1F000
01E1F000
01E1E0E0
01E1E1E0
01F1FFE0
00F1F3E0
000003F0
000000C0
ENDCHAR
STARTCHAR char492
ENCODING 451
SWIDTH 3840 0
DWIDTH 112 0
BBX 26 25 1 1
BITMAP
00000380
00000F80
07E0FF80
03FFCF80
03E7C7C0
03E7C000
0787C000
0007C000
000FE000
0038F000
0078F000
0070F800
00F0F800
00F0F800
1FF0F000
7CF0F000
7DF0F000
78F0F000
78F8F000
E0C0F000
0000F000
0000F000
0000F000
0000F000
0000F800
ENDCHAR
STARTCHAR char493
ENCODING 452
SWIDTH 3977 0
DWIDTH 116 0
BBX 27 25 1 1
BITMAP
00000380
00000F80
07E0FF80
03FFCF80
03E7CFC0
03E7C000
0787C000
0007C000
000DE000
0038F000
0078F000
0070F800
00F0F800
03F0F000
7FF0F000
7DE0F000
79E0F000
79E0F000
F1E0F780
01E0FFC0
01E0F3E0
01E0F3E0
01E0F3C0
01F0FF80
00F0E000
ENDCHAR
STARTCHAR char494
ENCODING 453
SWIDTH 3154 0
DWIDTH 92 0
BBX 21 24 1 1
BITMAP
0000F0
1801F0
3E0FF0
3FFDF8
3E7C70
3E3E00
381F00
000FC0
001CE0
0078F0
0078F0
00F0F0
00F0F0
07F0F0
7DF0F0
7DF0F0
79F0F0
79F0F0
F1F0F0
00F0F0
00F0F0
00F0F0
00F0F0
00F0E8
ENDCHAR
STARTCHAR char495
ENCODING 454
SWIDTH 3702 0
DWIDTH 108 0
BBX 26 25 1 1
BITMAP
00000380
00000F80
07E0FF80
03FFCF80
03E7CFC0
03E7C000
0787C000
0007C000
000FE000
0038F000
0078F000
0070F800
00F0F000
00F0F000
0FF0F000
7DF0F000
7DE0F000
79E0F000
79E0F800
F1E00000
01E00000
01E00000
01E00000
01F00000
00F00000
ENDCHAR
STARTCHAR char481
ENCODING 456
SWIDTH 3428 0
DWIDTH 100 0
BBX 22 23 2 1
BITMAP
00003C
3C007C
3E0FFC
1FFE7C
1E3C3C
1C3C00
003C00
003C00
003C00
1FFFF8
3E7CF8
3E7C7C
3C783C
787800
007800
007800
01F800
7FF800
7CF800
78F000
F0F000
C0F800
00F800
ENDCHAR
STARTCHAR char481
ENCODING 457
SWIDTH 3428 0
DWIDTH 100 0
BBX 22 23 2 1
BITMAP
00003C
3C007C
3E0FFC
1FFE7C
1E3C3C
1C3C00
003C00
003C00
003C00
1FFFF8
3E7CF8
3E7C7C
3C783C
787800
007800
007838
01F8F0
7FFFF0
7CFDF0
78F1F8
F0F000
C0F000
00F800
ENDCHAR
STARTCHAR char482
ENCODING 458
SWIDTH 3428 0
DWIDTH 100 0
BBX 22 25 2 0
BITMAP
00003C
0000F8
3F00F8
1F7FF8
1FFC7C
1F3C00
3C3C00
003C00
007C00
007FF8
3FFFF8
3E7878
3C7878
3C783C
787800
00F800
00F800
0FF800
FFF000
78F000
F8F078
F0F0F0
C0FFF0
00E1F8
0000F8
ENDCHAR
STARTCHAR char483
ENCODING 459
SWIDTH 3428 0
DWIDTH 100 0
BBX 22 28 2 -4
BITMAP
00003C
0000F8
1F00F8
1FFFF8
1FFC7C
1F3C00
1C3C00
003C00
003C00
0FFC00
3E7FF8
3E7CF8
3C78F8
787878
007834
007800
7FF800
7CF800
7CF800
78F000
F1E000
03C000
1E0000
F80000
F80000
F00000
F00000
E00000
ENDCHAR
STARTCHAR char484
ENCODING 460
SWIDTH 3428 0
DWIDTH 100 0
BBX 22 24 2 1
BITMAP
00003C
0000F8
3F00F8
1F7FF8
1FFC7C
1F3C00
3C3C00
003C00
007C00
007FF8
3FFFF8
3E7878
3C7878
3C783C
787800
00F800
00F800
FFFFE0
7CF3E0
78F1E0
F8F1E0
E0F9E0
00FFC0
00F000
ENDCHAR
STARTCHAR char485
ENCODING 461
SWIDTH 3565 0
DWIDTH 104 0
BBX 25 26 0 1
BITMAP
00007800
E000F000
7801F000
7FFFF800
7C78F000
78780000
40F88000
00FF8000
000F8000
000F8000
000FFF00
0FFF0F00
078F0F00
078F0F80
0F0F0780
0E1F0000
001F0000
007F0000
1FFE0000
0F1E0000
0F1E0000
1E1E0000
183E0000
003E0000
003E0000
003F0000
ENDCHAR
STARTCHAR char486
ENCODING 462
SWIDTH 3428 0
DWIDTH 100 0
BBX 23 26 2 1
BITMAP
00003E
00003C
0F803C
0F8078
0F8FC0
0FFF80
00E780
01E780
01E780
01E700
01FE00
00FC00
00F800
1FFBF8
7C7FF8
7C78F8
78F8F8
78F878
E0F800
00F800
FFF000
78F000
78F000
F0F000
E0F000
00F800
ENDCHAR
STARTCHAR char497
ENCODING 464
SWIDTH 4251 0
DWIDTH 124 0
BBX 29 19 1 1
BITMAP
000001F0
0FE01FF0
7CF079F0
7C7878F8
7878F870
F078F800
007FF000
007CF000
0078F000
3FF8F000
3EF8F000
3CF0F000
3CF0F000
78F1F000
00F1F000
00F1E000
00F1E000
00F1E000
00F9F000
ENDCHAR
STARTCHAR char497
ENCODING 465
SWIDTH 4251 0
DWIDTH 124 0
BBX 29 19 1 1
BITMAP
000001F0
0FE01FF0
7CF079F0
7C7878F8
7878F870
F078F800
007FF000
007CFFF0
0078F9F0
3FF8F1F0
3EF8F1F0
3CF0F0F8
3CF0F000
78F1F000
00F1F000
00F1E000
00F1E000
00F1E000
00F9F000
ENDCHAR
STARTCHAR char498
ENCODING 466
SWIDTH 4251 0
DWIDTH 124 0
BBX 30 21 1 -1
BITMAP
000001F8
0FE01FF0
7CF03CF8
7C7878F8
7878787C
F0787800
007FF800
007CF800
0078F800
3FF8F000
3EF8F000
3CF8F000
3CF0F000
78F0F000
00F0F000
00F1F070
00F1F1E0
00F1FFE0
00F8FBF0
000001F0
000000C0
ENDCHAR
STARTCHAR char499
ENCODING 467
SWIDTH 4251 0
DWIDTH 124 0
BBX 30 19 1 1
BITMAP
000001F8
0FE01FF8
7CF03CF8
7C7878F8
7878787C
F0787800
007FF800
007CF800
07F8F800
3EF8F000
3EF8F000
3CF8F000
38F8F000
6060F000
0000F000
0001F000
0001F000
0001F000
0001F000
ENDCHAR
STARTCHAR char500
ENCODING 468
SWIDTH 4251 0
DWIDTH 124 0
BBX 30 19 1 1
BITMAP
000001F8
0FE01FF0
7CF03CF8
7C7878F8
7878787C
F0787800
007FF800
007CF800
03F8F800
3E78F000
3EF8F000
3CF8F000
38F0F180
70F0FFE0
00F0F3E0
00F1F1E0
00F1F3E0
00F1FFC0
00F8E200
ENDCHAR
STARTCHAR char501
ENCODING 469
SWIDTH 4251 0
DWIDTH 124 0
BBX 30 26 1 1
BITMAP
F8078000
780F8000
7C0F8000
7FFF8000
01E00000
01E00000
01E00000
01E001F8
0FE01FF0
7CF83CF8
7C7878F8
7C78787C
F0787800
0078F800
0078F800
07FFF800
3E78F000
3E78F000
3E78F000
3CF8F000
70F0F000
00F0F000
00F1F000
00F1F000
00F1F000
00F8F000
ENDCHAR
STARTCHAR char502
ENCODING 470
SWIDTH 4251 0
DWIDTH 124 0
BBX 30 19 1 1
BITMAP
000001F8
0FE01FF8
7CF03CF8
7C7878F8
7878787C
F0787800
007FF800
007CF800
0078F800
3FF8F000
3EF8F000
3CF8F000
3CF0F000
78F0F800
00F00000
00F00000
00F00000
00F00000
00F80000
ENDCHAR
STARTCHAR char472
ENCODING 472
SWIDTH 6000 0
DWIDTH 175 0
BBX 41 17 1 0
BITMAP
00007FFE0000
0007DF078000
001C1F03C000
00381E03C000
00701E03C000
00F01E03C000
01F03E03C000
03E03E03C000
7FE03E03C000
FBE23E03C000
7BFF3FF3FE00
73E7BE73FF00
E3E7BE73C780
03E7BE73C780
03FF3FF3CF00
03E03E03FE00
000000010000
ENDCHAR
STARTCHAR char473
ENCODING 473
SWIDTH 6034 0
DWIDTH 176 0
BBX 42 17 1 0
BITMAP
00007FFE0000
0007DF078000
001C1F03C000
00381E03C000
00701E03C7C0
00F01E03FF80
01F03E03CF80
03E03E03C7C0
7FE03E03C300
FBE23E03C000
7BFF3FF3FE00
73E7BE73FF00
E3E7BE73C780
03E7BE73C780
03FF3FF3CF00
03E03E03FE00
000000010000
ENDCHAR
STARTCHAR char507
ENCODING 474
SWIDTH 6034 0
DWIDTH 176 0
BBX 42 19 1 -2
BITMAP
00003FFC0000
0007FE0F0000
001C1E038000
00381E03C000
00703C03E000
00F03C01E000
01F03C03E000
03E03C03E000
7FE03C03E000
FBE23C03E000
7BFF3FF3E000
73E7BCF3E000
E3E7BCF3E000
03E7BCF3E000
03FF3FE3FF80
03C03C03FF80
000000000780
000000000780
0000000003C0
ENDCHAR
STARTCHAR char508
ENCODING 475
SWIDTH 5485 0
DWIDTH 160 0
BBX 38 19 1 1
BITMAP
0003FFFF00
001E0F0780
00380F01C0
00701E01E0
00FF9FF1E0
00F79EF1E0
01E79CF3E0
7FE7BCF3C0
7DEF3DF7C0
79FE3FC7C0
7800000780
7000000F80
8000000F70
0000001FFC
0000001F7C
0000003E7C
0000003E78
0000003FF0
0000003800
ENDCHAR
STARTCHAR char509
ENCODING 476
SWIDTH 6445 0
DWIDTH 188 0
BBX 45 16 1 1
BITMAP
00007FFC0000
0007FE1E0000
001C1E0F01E0
00383C079FF8
00703C07FEF8
00703C079E78
00F03C079E78
00E03C078FE0
3FE03C078000
7DE63C078C00
7DFF3FE7FE00
79E7BCF79E00
71E7BCF79E00
81E7BCF79E00
01FF3FE7FC00
01E03C07E000
ENDCHAR
STARTCHAR char510
ENCODING 477
SWIDTH 5485 0
DWIDTH 160 0
BBX 38 19 1 1
BITMAP
0001FFFE00
000E0F8F00
00380F0F00
00780F0F00
00FF9F0FFC
00F3DF0F3C
0FF3DE0F3C
FDE7BF9F78
79FF0F9FF8
79FC0F1FC0
70001F0000
E0001E0000
00001E0000
00003FF000
00003FF800
00003CF800
00007CF000
00007FE000
0000780000
ENDCHAR
STARTCHAR char511
ENCODING 478
SWIDTH 5760 0
DWIDTH 168 0
BBX 39 19 2 1
BITMAP
0001FE7F00
00071F8F80
000E1E0780
001C1E0380
00381FF3FE
00781CF79E
00703CF79E
00F03CF79E
00F03DE7BC
00F03FC7F8
0FF0000000
FDE2000000
7DFF800000
79E7800000
71E7800000
E1E7800000
01E7000000
01FE000000
01C0000000
ENDCHAR
STARTCHAR char473
ENCODING 480
SWIDTH 3291 0
DWIDTH 96 0
BBX 23 29 0 1
BITMAP
0000F0
0003E0
F803E0
7FFFE0
7F01F0
7C0040
780000
807800
01F800
00F800
00F800
00F800
007880
007F80
004F00
001E00
003E00
003CE0
007FF0
00F9F0
00F8F8
01F0F8
01F078
03E078
03E07C
03E07C
07C07C
07E03C
03E03E
ENDCHAR
STARTCHAR char474
ENCODING 481
SWIDTH 4388 0
DWIDTH 128 0
BBX 31 29 0 1
BITMAP
0000F000
0001F000
F803E000
7DFFF000
7F81F800
7C004000
78000000
80380000
00F80000
00F80000
00780000
00780000
0078C000
007F8000
006F0000
001F0000
003E0000
003CF000
007FF800
00F9F804
00F8FBFC
01F07F7C
01F07C7C
03E07C3E
03E07C1E
03E03C00
03E03C00
03E03E00
03E03C00
ENDCHAR
STARTCHAR char475
ENCODING 482
SWIDTH 4388 0
DWIDTH 128 0
BBX 31 31 0 -1
BITMAP
0000F000
0001E000
F803E000
7DFFF000
7F01F000
7C004000
78000000
80780000
01F80000
00F80000
00F80000
00F80000
0078C000
007F8000
006F0000
001E0000
003E0000
003CF000
007FF000
00F9F800
00F8F800
01F07800
01F07800
03E07800
03E07C00
03E07C1C
03C03C7C
07E03FFC
03E03F7C
0000007E
00000018
ENDCHAR
STARTCHAR char476
ENCODING 483
SWIDTH 3428 0
DWIDTH 100 0
BBX 24 29 0 1
BITMAP
0000F0
0001F0
F803E0
7DFFF0
7F81F8
7C0040
780000
803800
00F800
00F800
007800
007800
007840
007F80
007F00
000F00
001E00
003CF0
007FF8
00F8F8
00F87C
01F07C
03F03C
03E03C
03E03C
03E03E
03F03E
00003E
00001F
ENDCHAR
STARTCHAR char477
ENCODING 484
SWIDTH 3840 0
DWIDTH 112 0
BBX 27 29 0 1
BITMAP
0000F000
0001E000
F803E000
7DFFF000
7F01F000
7C004000
78000000
80000000
00300000
01F00000
00F00000
00F00000
00F00000
00F00000
00FF0000
00FE0000
003C0000
003C0000
007FC000
00FFE000
00F1E000
01F1F000
03E1FFC0
03E1F7E0
03C1F1E0
07C1F1E0
07C1F3C0
07C1FF80
07E0F800
ENDCHAR
STARTCHAR char478
ENCODING 485
SWIDTH 3291 0
DWIDTH 96 0
BBX 23 30 0 1
BITMAP
0000E0
0003E0
F803E0
7FFFE0
7F01F0
7C0000
780000
800000
006000
03F000
03F000
03FF00
03DE00
003E00
003C00
007F80
006F00
000E00
001C00
003DC0
007FF0
0079F0
00F0F0
01F0F8
01E0F8
01E078
03E078
03E07C
03E07C
01F03E
ENDCHAR
STARTCHAR char479
ENCODING 486
SWIDTH 3154 0
DWIDTH 92 0
BBX 22 29 0 1
BITMAP
0000F0
0001E0
F803E0
7FFFE0
7F01F0
7C0040
780000
800000
007800
00F800
00F800
00F800
007800
007980
007F00
000E00
001E00
003C00
003FE0
007BF0
00F8F0
00F0F0
01F0F8
03E0F8
03E0F8
07C07C
07C060
07C000
07E000
ENDCHAR
STARTCHAR char328
ENCODING 488
SWIDTH 3840 0
DWIDTH 112 0
BBX 26 21 1 1
BITMAP
01F00000
1FF80000
78F80000
7C7C0000
787C0000
787C0000
E0783F80
007FF7C0
00F9E3C0
00F9E3C0
00F9E3C0
00F1F780
00F1FF00
01F00000
01F00000
01F00000
01E00000
03E00000
03E00000
03F00000
01E00000
ENDCHAR
STARTCHAR char330
ENCODING 490
SWIDTH 3977 0
DWIDTH 116 0
BBX 27 20 1 1
BITMAP
03F00000
7FF80000
78F80000
7878F000
7878F000
F078F000
00F8F000
00FFF000
00F8F000
00F0F000
01F1FFE0
01F007C0
01E003C0
01E003C0
03E003E0
03C00080
03C00000
07C00000
07C00000
03C00000
ENDCHAR
STARTCHAR char176
ENCODING 491
SWIDTH 2057 0
DWIDTH 60 0
BBX 13 20 1 1
BITMAP
03E0
1FF0
7CF8
78F8
78F8
70F8
80F8
00F0
00F0
01F0
01F0
01E0
01E0
03E0
03E0
03E0
03C0
07C0
07C0
03E0
ENDCHAR
STARTCHAR char332
ENCODING 492
SWIDTH 3154 0
DWIDTH 92 0
BBX 20 25 2 -1
BITMAP
007C00
0FFE00
1F1E00
1F1F00
1E1F00
1C1F00
001E00
001E00
003E00
003E00
003C00
007C00
007FE0
007BF0
00F9F0
00F9F0
00F9F0
01FFE0
07C300
FC0000
780000
780000
700000
E00000
800000
ENDCHAR
STARTCHAR char332
ENCODING 493
SWIDTH 3428 0
DWIDTH 100 0
BBX 23 20 1 1
BITMAP
03F000
7FF800
78F800
7879F0
7879F0
F079F0
00F9E0
00F9E0
00FFE0
00F03E
01F03E
01F01E
01E01E
03E006
03E000
03C000
03C000
07C000
07C000
07C000
ENDCHAR
STARTCHAR char147
ENCODING 496
SWIDTH 3017 0
DWIDTH 88 0
BBX 25 27 2 -5
BITMAP
3E000000
1E000000
1E000000
1E000000
1F000000
1F700000
1FE00000
03C00000
07C00000
0F880000
0FFE0000
1F3E0000
3E1F0000
3E1F0000
7C0F0000
F80F0000
F80F8000
F80F8000
FC0F8000
00078000
0007C100
0007FF00
03FE1F00
03E00F00
03C00F80
03C00000
07000000
ENDCHAR
STARTCHAR char131
ENCODING 497
SWIDTH 3222 0
DWIDTH 94 0
BBX 20 26 1 -4
BITMAP
000FC0
07FFE0
1EF9E0
3CF1F0
78F1F0
F8F1F0
F8F1F0
F8F1E0
F8F3C0
F9FF80
7FF000
19F000
01F000
01F000
01F000
01F000
01F000
01E000
01E000
01F080
3FFF80
7C07C0
FC07C0
F803C0
F000A0
C00000
ENDCHAR
STARTCHAR char139
ENCODING 498
SWIDTH 2811 0
DWIDTH 82 0
BBX 20 27 2 -5
BITMAP
03E000
1FF000
38F000
78F800
F8F000
F0F000
F0F000
F1F000
F1E000
FFDF00
781F00
001F00
001E00
003E00
003E00
007C00
007C00
007800
00F800
00F800
00FC20
00FFE0
7FC3E0
7C01E0
7801F0
780000
E00000
ENDCHAR
STARTCHAR char341
ENCODING 503
SWIDTH 1782 0
DWIDTH 52 0
BBX 8 15 3 4
BITMAP
0F
1E
1E
3C
3C
78
70
F0
F0
78
78
3C
3C
1E
0F
ENDCHAR
STARTCHAR char342
ENCODING 504
SWIDTH 1782 0
DWIDTH 52 0
BBX 8 15 2 4
BITMAP
F0
78
3C
3C
1E
1E
0F
0F
0E
1E
3C
3C
78
78
F0
ENDCHAR
STARTCHAR char357
ENCODING 505
SWIDTH 2742 0
DWIDTH 80 0
BBX 15 15 3 4
BITMAP
071E
0F3C
1E3C
1C78
3C70
78F0
78E0
F1E0
F1E0
79E0
78F0
3C78
1E78
1E3C
0F3E
ENDCHAR
STARTCHAR char359
ENCODING 506
SWIDTH 2742 0
DWIDTH 80 0
BBX 15 15 2 4
BITMAP
F9E0
78F0
3CF0
3C78
1E3C
0F3C
0F1E
0F1E
0E3C
1E3C
1C78
3C70
78F0
79E0
F1C0
ENDCHAR
STARTCHAR char345
ENCODING 507
SWIDTH 2468 0
DWIDTH 72 0
BBX 5 21 5 1
BITMAP
70
70
F8
F8
F8
F8
F8
70
70
70
70
70
70
70
20
00
70
F8
F8
F8
70
ENDCHAR
STARTCHAR char346
ENCODING 508
SWIDTH 1508 0
DWIDTH 44 0
BBX 5 5 2 1
BITMAP
70
F8
F8
F8
70
ENDCHAR
STARTCHAR char347
ENCODING 509
SWIDTH 2605 0
DWIDTH 76 0
BBX 11 21 3 1
BITMAP
3F00
7FC0
FFC0
E3E0
43E0
03E0
03E0
03C0
0780
0F80
0F00
0E00
0E00
0E00
0000
0000
0E00
1F00
1F00
1F00
0E00
ENDCHAR
STARTCHAR char348
ENCODING 510
SWIDTH 1645 0
DWIDTH 48 0
BBX 9 11 2 10
BITMAP
0780
1E00
3C00
7800
7800
F800
F800
F900
FF00
7C00
3000
ENDCHAR
STARTCHAR char349
ENCODING 511
SWIDTH 1645 0
DWIDTH 48 0
BBX 9 11 1 10
BITMAP
0700
1F00
7F80
0F80
0F80
0F80
0F00
0F00
1E00
7C00
F000
ENDCHAR
ENDFONT
